%
M48
M72
T01C0.03200
T02C0.04000
T03C0.04400
%
T01
X23500Y18500
X23500Y28500
X23500Y38500
X23500Y48500
X21000Y61000
X31000Y61000
X53500Y48500
X53500Y38500
X63500Y38500
X53500Y28500
X53500Y18500
X81000Y18500
X81000Y28500
X93500Y38500
X103500Y38500
X103500Y28579
X103500Y18500
X133500Y18500
X133500Y28579
X133500Y38500
X133500Y51000
X103500Y51000
T02
X11000Y48500
X11000Y66000
X198500Y66000
X198500Y46000
T03
X171000Y23500
X161000Y23500
X151000Y23500
M30
