G75*
%MOIN*%
%OFA0B0*%
%FSLAX25Y25*%
%IPPOS*%
%LPD*%
%AMOC8*
5,1,8,0,0,1.08239X$1,22.5*
%
%ADD10C,0.00000*%
%ADD11C,0.00600*%
%ADD12C,0.01000*%
%ADD13C,0.00300*%
%ADD14R,0.02000X0.08000*%
%ADD15R,0.02500X0.02000*%
%ADD16C,0.00200*%
%ADD17C,0.00400*%
%ADD18R,0.03000X0.02500*%
%ADD19R,0.05000X0.11000*%
%ADD20C,0.00700*%
D10*
X0001000Y0001000D02*
X0001000Y0115961D01*
X0214701Y0115961D01*
X0214701Y0001000D01*
X0001000Y0001000D01*
D11*
X0027000Y0013500D02*
X0034500Y0013500D01*
X0034502Y0013626D01*
X0034508Y0013751D01*
X0034518Y0013876D01*
X0034532Y0014001D01*
X0034549Y0014126D01*
X0034571Y0014250D01*
X0034596Y0014373D01*
X0034626Y0014495D01*
X0034659Y0014616D01*
X0034696Y0014736D01*
X0034736Y0014855D01*
X0034781Y0014972D01*
X0034829Y0015089D01*
X0034881Y0015203D01*
X0034936Y0015316D01*
X0034995Y0015427D01*
X0035057Y0015536D01*
X0035123Y0015643D01*
X0035192Y0015748D01*
X0035264Y0015851D01*
X0035339Y0015952D01*
X0035418Y0016050D01*
X0035500Y0016145D01*
X0035584Y0016238D01*
X0035672Y0016328D01*
X0035762Y0016416D01*
X0035855Y0016500D01*
X0035950Y0016582D01*
X0036048Y0016661D01*
X0036149Y0016736D01*
X0036252Y0016808D01*
X0036357Y0016877D01*
X0036464Y0016943D01*
X0036573Y0017005D01*
X0036684Y0017064D01*
X0036797Y0017119D01*
X0036911Y0017171D01*
X0037028Y0017219D01*
X0037145Y0017264D01*
X0037264Y0017304D01*
X0037384Y0017341D01*
X0037505Y0017374D01*
X0037627Y0017404D01*
X0037750Y0017429D01*
X0037874Y0017451D01*
X0037999Y0017468D01*
X0038124Y0017482D01*
X0038249Y0017492D01*
X0038374Y0017498D01*
X0038500Y0017500D01*
X0038626Y0017498D01*
X0038751Y0017492D01*
X0038876Y0017482D01*
X0039001Y0017468D01*
X0039126Y0017451D01*
X0039250Y0017429D01*
X0039373Y0017404D01*
X0039495Y0017374D01*
X0039616Y0017341D01*
X0039736Y0017304D01*
X0039855Y0017264D01*
X0039972Y0017219D01*
X0040089Y0017171D01*
X0040203Y0017119D01*
X0040316Y0017064D01*
X0040427Y0017005D01*
X0040536Y0016943D01*
X0040643Y0016877D01*
X0040748Y0016808D01*
X0040851Y0016736D01*
X0040952Y0016661D01*
X0041050Y0016582D01*
X0041145Y0016500D01*
X0041238Y0016416D01*
X0041328Y0016328D01*
X0041416Y0016238D01*
X0041500Y0016145D01*
X0041582Y0016050D01*
X0041661Y0015952D01*
X0041736Y0015851D01*
X0041808Y0015748D01*
X0041877Y0015643D01*
X0041943Y0015536D01*
X0042005Y0015427D01*
X0042064Y0015316D01*
X0042119Y0015203D01*
X0042171Y0015089D01*
X0042219Y0014972D01*
X0042264Y0014855D01*
X0042304Y0014736D01*
X0042341Y0014616D01*
X0042374Y0014495D01*
X0042404Y0014373D01*
X0042429Y0014250D01*
X0042451Y0014126D01*
X0042468Y0014001D01*
X0042482Y0013876D01*
X0042492Y0013751D01*
X0042498Y0013626D01*
X0042500Y0013500D01*
X0050000Y0013500D01*
X0050000Y0053500D01*
X0027000Y0053500D01*
X0027000Y0013500D01*
X0067000Y0034000D02*
X0068500Y0034000D01*
X0069000Y0034500D01*
X0088000Y0034500D01*
X0088500Y0034000D01*
X0090000Y0034000D01*
X0090060Y0034002D01*
X0090121Y0034007D01*
X0090180Y0034016D01*
X0090239Y0034029D01*
X0090298Y0034045D01*
X0090355Y0034065D01*
X0090410Y0034088D01*
X0090465Y0034115D01*
X0090517Y0034144D01*
X0090568Y0034177D01*
X0090617Y0034213D01*
X0090663Y0034251D01*
X0090707Y0034293D01*
X0090749Y0034337D01*
X0090787Y0034383D01*
X0090823Y0034432D01*
X0090856Y0034483D01*
X0090885Y0034535D01*
X0090912Y0034590D01*
X0090935Y0034645D01*
X0090955Y0034702D01*
X0090971Y0034761D01*
X0090984Y0034820D01*
X0090993Y0034879D01*
X0090998Y0034940D01*
X0091000Y0035000D01*
X0086000Y0031500D02*
X0086000Y0030000D01*
X0087500Y0030000D01*
X0086000Y0030000D02*
X0086000Y0028500D01*
X0086000Y0030000D02*
X0084500Y0030000D01*
X0070000Y0023500D02*
X0070003Y0023770D01*
X0070013Y0024040D01*
X0070030Y0024309D01*
X0070053Y0024578D01*
X0070083Y0024847D01*
X0070119Y0025114D01*
X0070162Y0025381D01*
X0070211Y0025646D01*
X0070267Y0025910D01*
X0070330Y0026173D01*
X0070398Y0026434D01*
X0070474Y0026693D01*
X0070555Y0026950D01*
X0070643Y0027206D01*
X0070737Y0027459D01*
X0070837Y0027710D01*
X0070944Y0027958D01*
X0071056Y0028203D01*
X0071175Y0028446D01*
X0071299Y0028685D01*
X0071429Y0028922D01*
X0071565Y0029155D01*
X0071707Y0029385D01*
X0071854Y0029611D01*
X0072007Y0029834D01*
X0072165Y0030053D01*
X0072328Y0030268D01*
X0072497Y0030478D01*
X0072671Y0030685D01*
X0072850Y0030887D01*
X0073033Y0031085D01*
X0073222Y0031278D01*
X0073415Y0031467D01*
X0073613Y0031650D01*
X0073815Y0031829D01*
X0074022Y0032003D01*
X0074232Y0032172D01*
X0074447Y0032335D01*
X0074666Y0032493D01*
X0074889Y0032646D01*
X0075115Y0032793D01*
X0075345Y0032935D01*
X0075578Y0033071D01*
X0075815Y0033201D01*
X0076054Y0033325D01*
X0076297Y0033444D01*
X0076542Y0033556D01*
X0076790Y0033663D01*
X0077041Y0033763D01*
X0077294Y0033857D01*
X0077550Y0033945D01*
X0077807Y0034026D01*
X0078066Y0034102D01*
X0078327Y0034170D01*
X0078590Y0034233D01*
X0078854Y0034289D01*
X0079119Y0034338D01*
X0079386Y0034381D01*
X0079653Y0034417D01*
X0079922Y0034447D01*
X0080191Y0034470D01*
X0080460Y0034487D01*
X0080730Y0034497D01*
X0081000Y0034500D01*
X0081270Y0034497D01*
X0081540Y0034487D01*
X0081809Y0034470D01*
X0082078Y0034447D01*
X0082347Y0034417D01*
X0082614Y0034381D01*
X0082881Y0034338D01*
X0083146Y0034289D01*
X0083410Y0034233D01*
X0083673Y0034170D01*
X0083934Y0034102D01*
X0084193Y0034026D01*
X0084450Y0033945D01*
X0084706Y0033857D01*
X0084959Y0033763D01*
X0085210Y0033663D01*
X0085458Y0033556D01*
X0085703Y0033444D01*
X0085946Y0033325D01*
X0086185Y0033201D01*
X0086422Y0033071D01*
X0086655Y0032935D01*
X0086885Y0032793D01*
X0087111Y0032646D01*
X0087334Y0032493D01*
X0087553Y0032335D01*
X0087768Y0032172D01*
X0087978Y0032003D01*
X0088185Y0031829D01*
X0088387Y0031650D01*
X0088585Y0031467D01*
X0088778Y0031278D01*
X0088967Y0031085D01*
X0089150Y0030887D01*
X0089329Y0030685D01*
X0089503Y0030478D01*
X0089672Y0030268D01*
X0089835Y0030053D01*
X0089993Y0029834D01*
X0090146Y0029611D01*
X0090293Y0029385D01*
X0090435Y0029155D01*
X0090571Y0028922D01*
X0090701Y0028685D01*
X0090825Y0028446D01*
X0090944Y0028203D01*
X0091056Y0027958D01*
X0091163Y0027710D01*
X0091263Y0027459D01*
X0091357Y0027206D01*
X0091445Y0026950D01*
X0091526Y0026693D01*
X0091602Y0026434D01*
X0091670Y0026173D01*
X0091733Y0025910D01*
X0091789Y0025646D01*
X0091838Y0025381D01*
X0091881Y0025114D01*
X0091917Y0024847D01*
X0091947Y0024578D01*
X0091970Y0024309D01*
X0091987Y0024040D01*
X0091997Y0023770D01*
X0092000Y0023500D01*
X0091997Y0023230D01*
X0091987Y0022960D01*
X0091970Y0022691D01*
X0091947Y0022422D01*
X0091917Y0022153D01*
X0091881Y0021886D01*
X0091838Y0021619D01*
X0091789Y0021354D01*
X0091733Y0021090D01*
X0091670Y0020827D01*
X0091602Y0020566D01*
X0091526Y0020307D01*
X0091445Y0020050D01*
X0091357Y0019794D01*
X0091263Y0019541D01*
X0091163Y0019290D01*
X0091056Y0019042D01*
X0090944Y0018797D01*
X0090825Y0018554D01*
X0090701Y0018315D01*
X0090571Y0018078D01*
X0090435Y0017845D01*
X0090293Y0017615D01*
X0090146Y0017389D01*
X0089993Y0017166D01*
X0089835Y0016947D01*
X0089672Y0016732D01*
X0089503Y0016522D01*
X0089329Y0016315D01*
X0089150Y0016113D01*
X0088967Y0015915D01*
X0088778Y0015722D01*
X0088585Y0015533D01*
X0088387Y0015350D01*
X0088185Y0015171D01*
X0087978Y0014997D01*
X0087768Y0014828D01*
X0087553Y0014665D01*
X0087334Y0014507D01*
X0087111Y0014354D01*
X0086885Y0014207D01*
X0086655Y0014065D01*
X0086422Y0013929D01*
X0086185Y0013799D01*
X0085946Y0013675D01*
X0085703Y0013556D01*
X0085458Y0013444D01*
X0085210Y0013337D01*
X0084959Y0013237D01*
X0084706Y0013143D01*
X0084450Y0013055D01*
X0084193Y0012974D01*
X0083934Y0012898D01*
X0083673Y0012830D01*
X0083410Y0012767D01*
X0083146Y0012711D01*
X0082881Y0012662D01*
X0082614Y0012619D01*
X0082347Y0012583D01*
X0082078Y0012553D01*
X0081809Y0012530D01*
X0081540Y0012513D01*
X0081270Y0012503D01*
X0081000Y0012500D01*
X0080730Y0012503D01*
X0080460Y0012513D01*
X0080191Y0012530D01*
X0079922Y0012553D01*
X0079653Y0012583D01*
X0079386Y0012619D01*
X0079119Y0012662D01*
X0078854Y0012711D01*
X0078590Y0012767D01*
X0078327Y0012830D01*
X0078066Y0012898D01*
X0077807Y0012974D01*
X0077550Y0013055D01*
X0077294Y0013143D01*
X0077041Y0013237D01*
X0076790Y0013337D01*
X0076542Y0013444D01*
X0076297Y0013556D01*
X0076054Y0013675D01*
X0075815Y0013799D01*
X0075578Y0013929D01*
X0075345Y0014065D01*
X0075115Y0014207D01*
X0074889Y0014354D01*
X0074666Y0014507D01*
X0074447Y0014665D01*
X0074232Y0014828D01*
X0074022Y0014997D01*
X0073815Y0015171D01*
X0073613Y0015350D01*
X0073415Y0015533D01*
X0073222Y0015722D01*
X0073033Y0015915D01*
X0072850Y0016113D01*
X0072671Y0016315D01*
X0072497Y0016522D01*
X0072328Y0016732D01*
X0072165Y0016947D01*
X0072007Y0017166D01*
X0071854Y0017389D01*
X0071707Y0017615D01*
X0071565Y0017845D01*
X0071429Y0018078D01*
X0071299Y0018315D01*
X0071175Y0018554D01*
X0071056Y0018797D01*
X0070944Y0019042D01*
X0070837Y0019290D01*
X0070737Y0019541D01*
X0070643Y0019794D01*
X0070555Y0020050D01*
X0070474Y0020307D01*
X0070398Y0020566D01*
X0070330Y0020827D01*
X0070267Y0021090D01*
X0070211Y0021354D01*
X0070162Y0021619D01*
X0070119Y0021886D01*
X0070083Y0022153D01*
X0070053Y0022422D01*
X0070030Y0022691D01*
X0070013Y0022960D01*
X0070003Y0023230D01*
X0070000Y0023500D01*
X0067000Y0034000D02*
X0066940Y0034002D01*
X0066879Y0034007D01*
X0066820Y0034016D01*
X0066761Y0034029D01*
X0066702Y0034045D01*
X0066645Y0034065D01*
X0066590Y0034088D01*
X0066535Y0034115D01*
X0066483Y0034144D01*
X0066432Y0034177D01*
X0066383Y0034213D01*
X0066337Y0034251D01*
X0066293Y0034293D01*
X0066251Y0034337D01*
X0066213Y0034383D01*
X0066177Y0034432D01*
X0066144Y0034483D01*
X0066115Y0034535D01*
X0066088Y0034590D01*
X0066065Y0034645D01*
X0066045Y0034702D01*
X0066029Y0034761D01*
X0066016Y0034820D01*
X0066007Y0034879D01*
X0066002Y0034940D01*
X0066000Y0035000D01*
X0066000Y0042000D02*
X0066002Y0042060D01*
X0066007Y0042121D01*
X0066016Y0042180D01*
X0066029Y0042239D01*
X0066045Y0042298D01*
X0066065Y0042355D01*
X0066088Y0042410D01*
X0066115Y0042465D01*
X0066144Y0042517D01*
X0066177Y0042568D01*
X0066213Y0042617D01*
X0066251Y0042663D01*
X0066293Y0042707D01*
X0066337Y0042749D01*
X0066383Y0042787D01*
X0066432Y0042823D01*
X0066483Y0042856D01*
X0066535Y0042885D01*
X0066590Y0042912D01*
X0066645Y0042935D01*
X0066702Y0042955D01*
X0066761Y0042971D01*
X0066820Y0042984D01*
X0066879Y0042993D01*
X0066940Y0042998D01*
X0067000Y0043000D01*
X0068500Y0043000D01*
X0069000Y0042500D01*
X0088000Y0042500D01*
X0088500Y0043000D01*
X0090000Y0043000D01*
X0090060Y0042998D01*
X0090121Y0042993D01*
X0090180Y0042984D01*
X0090239Y0042971D01*
X0090298Y0042955D01*
X0090355Y0042935D01*
X0090410Y0042912D01*
X0090465Y0042885D01*
X0090517Y0042856D01*
X0090568Y0042823D01*
X0090617Y0042787D01*
X0090663Y0042749D01*
X0090707Y0042707D01*
X0090749Y0042663D01*
X0090787Y0042617D01*
X0090823Y0042568D01*
X0090856Y0042517D01*
X0090885Y0042465D01*
X0090912Y0042410D01*
X0090935Y0042355D01*
X0090955Y0042298D01*
X0090971Y0042239D01*
X0090984Y0042180D01*
X0090993Y0042121D01*
X0090998Y0042060D01*
X0091000Y0042000D01*
X0106000Y0042000D02*
X0106002Y0042060D01*
X0106007Y0042121D01*
X0106016Y0042180D01*
X0106029Y0042239D01*
X0106045Y0042298D01*
X0106065Y0042355D01*
X0106088Y0042410D01*
X0106115Y0042465D01*
X0106144Y0042517D01*
X0106177Y0042568D01*
X0106213Y0042617D01*
X0106251Y0042663D01*
X0106293Y0042707D01*
X0106337Y0042749D01*
X0106383Y0042787D01*
X0106432Y0042823D01*
X0106483Y0042856D01*
X0106535Y0042885D01*
X0106590Y0042912D01*
X0106645Y0042935D01*
X0106702Y0042955D01*
X0106761Y0042971D01*
X0106820Y0042984D01*
X0106879Y0042993D01*
X0106940Y0042998D01*
X0107000Y0043000D01*
X0108500Y0043000D01*
X0109000Y0042500D01*
X0128000Y0042500D01*
X0128500Y0043000D01*
X0130000Y0043000D01*
X0130060Y0042998D01*
X0130121Y0042993D01*
X0130180Y0042984D01*
X0130239Y0042971D01*
X0130298Y0042955D01*
X0130355Y0042935D01*
X0130410Y0042912D01*
X0130465Y0042885D01*
X0130517Y0042856D01*
X0130568Y0042823D01*
X0130617Y0042787D01*
X0130663Y0042749D01*
X0130707Y0042707D01*
X0130749Y0042663D01*
X0130787Y0042617D01*
X0130823Y0042568D01*
X0130856Y0042517D01*
X0130885Y0042465D01*
X0130912Y0042410D01*
X0130935Y0042355D01*
X0130955Y0042298D01*
X0130971Y0042239D01*
X0130984Y0042180D01*
X0130993Y0042121D01*
X0130998Y0042060D01*
X0131000Y0042000D01*
X0130000Y0046500D02*
X0128500Y0046500D01*
X0128000Y0047000D01*
X0109000Y0047000D01*
X0108500Y0046500D01*
X0107000Y0046500D01*
X0106940Y0046502D01*
X0106879Y0046507D01*
X0106820Y0046516D01*
X0106761Y0046529D01*
X0106702Y0046545D01*
X0106645Y0046565D01*
X0106590Y0046588D01*
X0106535Y0046615D01*
X0106483Y0046644D01*
X0106432Y0046677D01*
X0106383Y0046713D01*
X0106337Y0046751D01*
X0106293Y0046793D01*
X0106251Y0046837D01*
X0106213Y0046883D01*
X0106177Y0046932D01*
X0106144Y0046983D01*
X0106115Y0047035D01*
X0106088Y0047090D01*
X0106065Y0047145D01*
X0106045Y0047202D01*
X0106029Y0047261D01*
X0106016Y0047320D01*
X0106007Y0047379D01*
X0106002Y0047440D01*
X0106000Y0047500D01*
X0106000Y0054500D02*
X0106002Y0054560D01*
X0106007Y0054621D01*
X0106016Y0054680D01*
X0106029Y0054739D01*
X0106045Y0054798D01*
X0106065Y0054855D01*
X0106088Y0054910D01*
X0106115Y0054965D01*
X0106144Y0055017D01*
X0106177Y0055068D01*
X0106213Y0055117D01*
X0106251Y0055163D01*
X0106293Y0055207D01*
X0106337Y0055249D01*
X0106383Y0055287D01*
X0106432Y0055323D01*
X0106483Y0055356D01*
X0106535Y0055385D01*
X0106590Y0055412D01*
X0106645Y0055435D01*
X0106702Y0055455D01*
X0106761Y0055471D01*
X0106820Y0055484D01*
X0106879Y0055493D01*
X0106940Y0055498D01*
X0107000Y0055500D01*
X0108500Y0055500D01*
X0109000Y0055000D01*
X0128000Y0055000D01*
X0128500Y0055500D01*
X0130000Y0055500D01*
X0130060Y0055498D01*
X0130121Y0055493D01*
X0130180Y0055484D01*
X0130239Y0055471D01*
X0130298Y0055455D01*
X0130355Y0055435D01*
X0130410Y0055412D01*
X0130465Y0055385D01*
X0130517Y0055356D01*
X0130568Y0055323D01*
X0130617Y0055287D01*
X0130663Y0055249D01*
X0130707Y0055207D01*
X0130749Y0055163D01*
X0130787Y0055117D01*
X0130823Y0055068D01*
X0130856Y0055017D01*
X0130885Y0054965D01*
X0130912Y0054910D01*
X0130935Y0054855D01*
X0130955Y0054798D01*
X0130971Y0054739D01*
X0130984Y0054680D01*
X0130993Y0054621D01*
X0130998Y0054560D01*
X0131000Y0054500D01*
X0131000Y0047500D02*
X0130998Y0047440D01*
X0130993Y0047379D01*
X0130984Y0047320D01*
X0130971Y0047261D01*
X0130955Y0047202D01*
X0130935Y0047145D01*
X0130912Y0047090D01*
X0130885Y0047035D01*
X0130856Y0046983D01*
X0130823Y0046932D01*
X0130787Y0046883D01*
X0130749Y0046837D01*
X0130707Y0046793D01*
X0130663Y0046751D01*
X0130617Y0046713D01*
X0130568Y0046677D01*
X0130517Y0046644D01*
X0130465Y0046615D01*
X0130410Y0046588D01*
X0130355Y0046565D01*
X0130298Y0046545D01*
X0130239Y0046529D01*
X0130180Y0046516D01*
X0130121Y0046507D01*
X0130060Y0046502D01*
X0130000Y0046500D01*
X0140500Y0043500D02*
X0140500Y0092500D01*
X0144000Y0092500D01*
X0144000Y0098500D01*
X0140500Y0098500D01*
X0140500Y0106000D01*
X0181500Y0106000D01*
X0181500Y0098500D01*
X0178000Y0098500D01*
X0178000Y0092500D01*
X0181500Y0092500D01*
X0181500Y0043500D01*
X0140500Y0043500D01*
X0131000Y0035000D02*
X0130998Y0034940D01*
X0130993Y0034879D01*
X0130984Y0034820D01*
X0130971Y0034761D01*
X0130955Y0034702D01*
X0130935Y0034645D01*
X0130912Y0034590D01*
X0130885Y0034535D01*
X0130856Y0034483D01*
X0130823Y0034432D01*
X0130787Y0034383D01*
X0130749Y0034337D01*
X0130707Y0034293D01*
X0130663Y0034251D01*
X0130617Y0034213D01*
X0130568Y0034177D01*
X0130517Y0034144D01*
X0130465Y0034115D01*
X0130410Y0034088D01*
X0130355Y0034065D01*
X0130298Y0034045D01*
X0130239Y0034029D01*
X0130180Y0034016D01*
X0130121Y0034007D01*
X0130060Y0034002D01*
X0130000Y0034000D01*
X0128500Y0034000D01*
X0128000Y0034500D01*
X0109000Y0034500D01*
X0108500Y0034000D01*
X0107000Y0034000D01*
X0106940Y0034002D01*
X0106879Y0034007D01*
X0106820Y0034016D01*
X0106761Y0034029D01*
X0106702Y0034045D01*
X0106645Y0034065D01*
X0106590Y0034088D01*
X0106535Y0034115D01*
X0106483Y0034144D01*
X0106432Y0034177D01*
X0106383Y0034213D01*
X0106337Y0034251D01*
X0106293Y0034293D01*
X0106251Y0034337D01*
X0106213Y0034383D01*
X0106177Y0034432D01*
X0106144Y0034483D01*
X0106115Y0034535D01*
X0106088Y0034590D01*
X0106065Y0034645D01*
X0106045Y0034702D01*
X0106029Y0034761D01*
X0106016Y0034820D01*
X0106007Y0034879D01*
X0106002Y0034940D01*
X0106000Y0035000D01*
X0110500Y0032579D02*
X0126500Y0032579D01*
X0126560Y0032577D01*
X0126621Y0032572D01*
X0126680Y0032563D01*
X0126739Y0032550D01*
X0126798Y0032534D01*
X0126855Y0032514D01*
X0126910Y0032491D01*
X0126965Y0032464D01*
X0127017Y0032435D01*
X0127068Y0032402D01*
X0127117Y0032366D01*
X0127163Y0032328D01*
X0127207Y0032286D01*
X0127249Y0032242D01*
X0127287Y0032196D01*
X0127323Y0032147D01*
X0127356Y0032096D01*
X0127385Y0032044D01*
X0127412Y0031989D01*
X0127435Y0031934D01*
X0127455Y0031877D01*
X0127471Y0031818D01*
X0127484Y0031759D01*
X0127493Y0031700D01*
X0127498Y0031639D01*
X0127500Y0031579D01*
X0127500Y0025579D01*
X0127498Y0025519D01*
X0127493Y0025458D01*
X0127484Y0025399D01*
X0127471Y0025340D01*
X0127455Y0025281D01*
X0127435Y0025224D01*
X0127412Y0025169D01*
X0127385Y0025114D01*
X0127356Y0025062D01*
X0127323Y0025011D01*
X0127287Y0024962D01*
X0127249Y0024916D01*
X0127207Y0024872D01*
X0127163Y0024830D01*
X0127117Y0024792D01*
X0127068Y0024756D01*
X0127017Y0024723D01*
X0126965Y0024694D01*
X0126910Y0024667D01*
X0126855Y0024644D01*
X0126798Y0024624D01*
X0126739Y0024608D01*
X0126680Y0024595D01*
X0126621Y0024586D01*
X0126560Y0024581D01*
X0126500Y0024579D01*
X0110500Y0024579D01*
X0110440Y0024581D01*
X0110379Y0024586D01*
X0110320Y0024595D01*
X0110261Y0024608D01*
X0110202Y0024624D01*
X0110145Y0024644D01*
X0110090Y0024667D01*
X0110035Y0024694D01*
X0109983Y0024723D01*
X0109932Y0024756D01*
X0109883Y0024792D01*
X0109837Y0024830D01*
X0109793Y0024872D01*
X0109751Y0024916D01*
X0109713Y0024962D01*
X0109677Y0025011D01*
X0109644Y0025062D01*
X0109615Y0025114D01*
X0109588Y0025169D01*
X0109565Y0025224D01*
X0109545Y0025281D01*
X0109529Y0025340D01*
X0109516Y0025399D01*
X0109507Y0025458D01*
X0109502Y0025519D01*
X0109500Y0025579D01*
X0109500Y0031579D01*
X0109502Y0031639D01*
X0109507Y0031700D01*
X0109516Y0031759D01*
X0109529Y0031818D01*
X0109545Y0031877D01*
X0109565Y0031934D01*
X0109588Y0031989D01*
X0109615Y0032044D01*
X0109644Y0032096D01*
X0109677Y0032147D01*
X0109713Y0032196D01*
X0109751Y0032242D01*
X0109793Y0032286D01*
X0109837Y0032328D01*
X0109883Y0032366D01*
X0109932Y0032402D01*
X0109983Y0032435D01*
X0110035Y0032464D01*
X0110090Y0032491D01*
X0110145Y0032514D01*
X0110202Y0032534D01*
X0110261Y0032550D01*
X0110320Y0032563D01*
X0110379Y0032572D01*
X0110440Y0032577D01*
X0110500Y0032579D01*
X0114500Y0031079D02*
X0118500Y0028579D01*
X0118500Y0031079D01*
X0114500Y0031079D02*
X0114500Y0026079D01*
X0118500Y0028579D01*
X0118500Y0026079D01*
X0118500Y0028579D02*
X0112500Y0028579D01*
X0118500Y0028579D02*
X0121000Y0028579D01*
X0128000Y0022500D02*
X0109000Y0022500D01*
X0108500Y0023000D01*
X0107000Y0023000D01*
X0106940Y0022998D01*
X0106879Y0022993D01*
X0106820Y0022984D01*
X0106761Y0022971D01*
X0106702Y0022955D01*
X0106645Y0022935D01*
X0106590Y0022912D01*
X0106535Y0022885D01*
X0106483Y0022856D01*
X0106432Y0022823D01*
X0106383Y0022787D01*
X0106337Y0022749D01*
X0106293Y0022707D01*
X0106251Y0022663D01*
X0106213Y0022617D01*
X0106177Y0022568D01*
X0106144Y0022517D01*
X0106115Y0022465D01*
X0106088Y0022410D01*
X0106065Y0022355D01*
X0106045Y0022298D01*
X0106029Y0022239D01*
X0106016Y0022180D01*
X0106007Y0022121D01*
X0106002Y0022060D01*
X0106000Y0022000D01*
X0106000Y0015000D02*
X0106002Y0014940D01*
X0106007Y0014879D01*
X0106016Y0014820D01*
X0106029Y0014761D01*
X0106045Y0014702D01*
X0106065Y0014645D01*
X0106088Y0014590D01*
X0106115Y0014535D01*
X0106144Y0014483D01*
X0106177Y0014432D01*
X0106213Y0014383D01*
X0106251Y0014337D01*
X0106293Y0014293D01*
X0106337Y0014251D01*
X0106383Y0014213D01*
X0106432Y0014177D01*
X0106483Y0014144D01*
X0106535Y0014115D01*
X0106590Y0014088D01*
X0106645Y0014065D01*
X0106702Y0014045D01*
X0106761Y0014029D01*
X0106820Y0014016D01*
X0106879Y0014007D01*
X0106940Y0014002D01*
X0107000Y0014000D01*
X0108500Y0014000D01*
X0109000Y0014500D01*
X0128000Y0014500D01*
X0128500Y0014000D01*
X0130000Y0014000D01*
X0130060Y0014002D01*
X0130121Y0014007D01*
X0130180Y0014016D01*
X0130239Y0014029D01*
X0130298Y0014045D01*
X0130355Y0014065D01*
X0130410Y0014088D01*
X0130465Y0014115D01*
X0130517Y0014144D01*
X0130568Y0014177D01*
X0130617Y0014213D01*
X0130663Y0014251D01*
X0130707Y0014293D01*
X0130749Y0014337D01*
X0130787Y0014383D01*
X0130823Y0014432D01*
X0130856Y0014483D01*
X0130885Y0014535D01*
X0130912Y0014590D01*
X0130935Y0014645D01*
X0130955Y0014702D01*
X0130971Y0014761D01*
X0130984Y0014820D01*
X0130993Y0014879D01*
X0130998Y0014940D01*
X0131000Y0015000D01*
X0131000Y0022000D02*
X0130998Y0022060D01*
X0130993Y0022121D01*
X0130984Y0022180D01*
X0130971Y0022239D01*
X0130955Y0022298D01*
X0130935Y0022355D01*
X0130912Y0022410D01*
X0130885Y0022465D01*
X0130856Y0022517D01*
X0130823Y0022568D01*
X0130787Y0022617D01*
X0130749Y0022663D01*
X0130707Y0022707D01*
X0130663Y0022749D01*
X0130617Y0022787D01*
X0130568Y0022823D01*
X0130517Y0022856D01*
X0130465Y0022885D01*
X0130410Y0022912D01*
X0130355Y0022935D01*
X0130298Y0022955D01*
X0130239Y0022971D01*
X0130180Y0022984D01*
X0130121Y0022993D01*
X0130060Y0022998D01*
X0130000Y0023000D01*
X0128500Y0023000D01*
X0128000Y0022500D01*
X0193000Y0044000D02*
X0196500Y0040500D01*
X0200500Y0040500D01*
X0204000Y0044000D01*
X0204000Y0048000D01*
X0200500Y0051500D01*
X0196500Y0051500D01*
X0193000Y0048000D01*
X0193000Y0044000D01*
X0196500Y0060500D02*
X0200500Y0060500D01*
X0204000Y0064000D01*
X0204000Y0068000D01*
X0200500Y0071500D01*
X0196500Y0071500D01*
X0193000Y0068000D01*
X0193000Y0064000D01*
X0196500Y0060500D01*
X0035500Y0057000D02*
X0035500Y0065000D01*
X0035498Y0065060D01*
X0035493Y0065121D01*
X0035484Y0065180D01*
X0035471Y0065239D01*
X0035455Y0065298D01*
X0035435Y0065355D01*
X0035412Y0065410D01*
X0035385Y0065465D01*
X0035356Y0065517D01*
X0035323Y0065568D01*
X0035287Y0065617D01*
X0035249Y0065663D01*
X0035207Y0065707D01*
X0035163Y0065749D01*
X0035117Y0065787D01*
X0035068Y0065823D01*
X0035017Y0065856D01*
X0034965Y0065885D01*
X0034910Y0065912D01*
X0034855Y0065935D01*
X0034798Y0065955D01*
X0034739Y0065971D01*
X0034680Y0065984D01*
X0034621Y0065993D01*
X0034560Y0065998D01*
X0034500Y0066000D01*
X0017500Y0066000D01*
X0017440Y0065998D01*
X0017379Y0065993D01*
X0017320Y0065984D01*
X0017261Y0065971D01*
X0017202Y0065955D01*
X0017145Y0065935D01*
X0017090Y0065912D01*
X0017035Y0065885D01*
X0016983Y0065856D01*
X0016932Y0065823D01*
X0016883Y0065787D01*
X0016837Y0065749D01*
X0016793Y0065707D01*
X0016751Y0065663D01*
X0016713Y0065617D01*
X0016677Y0065568D01*
X0016644Y0065517D01*
X0016615Y0065465D01*
X0016588Y0065410D01*
X0016565Y0065355D01*
X0016545Y0065298D01*
X0016529Y0065239D01*
X0016516Y0065180D01*
X0016507Y0065121D01*
X0016502Y0065060D01*
X0016500Y0065000D01*
X0016500Y0057000D01*
X0016502Y0056940D01*
X0016507Y0056879D01*
X0016516Y0056820D01*
X0016529Y0056761D01*
X0016545Y0056702D01*
X0016565Y0056645D01*
X0016588Y0056590D01*
X0016615Y0056535D01*
X0016644Y0056483D01*
X0016677Y0056432D01*
X0016713Y0056383D01*
X0016751Y0056337D01*
X0016793Y0056293D01*
X0016837Y0056251D01*
X0016883Y0056213D01*
X0016932Y0056177D01*
X0016983Y0056144D01*
X0017035Y0056115D01*
X0017090Y0056088D01*
X0017145Y0056065D01*
X0017202Y0056045D01*
X0017261Y0056029D01*
X0017320Y0056016D01*
X0017379Y0056007D01*
X0017440Y0056002D01*
X0017500Y0056000D01*
X0034500Y0056000D01*
X0034560Y0056002D01*
X0034621Y0056007D01*
X0034680Y0056016D01*
X0034739Y0056029D01*
X0034798Y0056045D01*
X0034855Y0056065D01*
X0034910Y0056088D01*
X0034965Y0056115D01*
X0035017Y0056144D01*
X0035068Y0056177D01*
X0035117Y0056213D01*
X0035163Y0056251D01*
X0035207Y0056293D01*
X0035249Y0056337D01*
X0035287Y0056383D01*
X0035323Y0056432D01*
X0035356Y0056483D01*
X0035385Y0056535D01*
X0035412Y0056590D01*
X0035435Y0056645D01*
X0035455Y0056702D01*
X0035471Y0056761D01*
X0035484Y0056820D01*
X0035493Y0056879D01*
X0035498Y0056940D01*
X0035500Y0057000D01*
X0027500Y0061000D02*
X0027000Y0061000D01*
X0025000Y0061000D02*
X0024500Y0061000D01*
X0016500Y0064000D02*
X0016500Y0068000D01*
X0013000Y0071500D01*
X0009000Y0071500D01*
X0005500Y0068000D01*
X0005500Y0064000D01*
X0009000Y0060500D01*
X0013000Y0060500D01*
X0016500Y0064000D01*
X0013000Y0054000D02*
X0009000Y0054000D01*
X0005500Y0050500D01*
X0005500Y0046500D01*
X0009000Y0043000D01*
X0013000Y0043000D01*
X0016500Y0046500D01*
X0016500Y0050500D01*
X0013000Y0054000D01*
D12*
X0025000Y0058000D02*
X0025000Y0061000D01*
X0025000Y0064000D01*
X0027000Y0064000D02*
X0027000Y0061000D01*
X0027000Y0058000D01*
D13*
X0027471Y0057119D02*
X0028944Y0057119D01*
X0028208Y0057119D02*
X0028208Y0059771D01*
X0027471Y0059182D01*
X0026426Y0059771D02*
X0025837Y0059771D01*
X0025837Y0059772D02*
X0025791Y0059770D01*
X0025745Y0059765D01*
X0025699Y0059756D01*
X0025655Y0059743D01*
X0025611Y0059727D01*
X0025569Y0059708D01*
X0025529Y0059685D01*
X0025490Y0059659D01*
X0025454Y0059631D01*
X0025420Y0059599D01*
X0025388Y0059565D01*
X0025360Y0059529D01*
X0025334Y0059490D01*
X0025311Y0059450D01*
X0025292Y0059408D01*
X0025276Y0059364D01*
X0025263Y0059320D01*
X0025254Y0059274D01*
X0025249Y0059228D01*
X0025247Y0059182D01*
X0025247Y0057708D01*
X0025248Y0057708D02*
X0025250Y0057662D01*
X0025255Y0057616D01*
X0025264Y0057571D01*
X0025277Y0057526D01*
X0025293Y0057483D01*
X0025312Y0057441D01*
X0025335Y0057400D01*
X0025360Y0057362D01*
X0025389Y0057325D01*
X0025421Y0057292D01*
X0025454Y0057260D01*
X0025491Y0057231D01*
X0025529Y0057206D01*
X0025570Y0057183D01*
X0025612Y0057164D01*
X0025655Y0057148D01*
X0025700Y0057135D01*
X0025745Y0057126D01*
X0025791Y0057121D01*
X0025837Y0057119D01*
X0026426Y0057119D01*
X0006913Y0041643D02*
X0004260Y0041643D01*
X0004260Y0040170D02*
X0006913Y0041643D01*
X0006913Y0040170D02*
X0004260Y0040170D01*
X0004260Y0038987D02*
X0004260Y0038397D01*
X0004260Y0038692D02*
X0006913Y0038692D01*
X0006913Y0038397D02*
X0006913Y0038987D01*
X0006176Y0037214D02*
X0004997Y0037214D01*
X0004944Y0037212D01*
X0004892Y0037206D01*
X0004840Y0037197D01*
X0004789Y0037184D01*
X0004739Y0037168D01*
X0004691Y0037147D01*
X0004644Y0037124D01*
X0004599Y0037097D01*
X0004555Y0037067D01*
X0004514Y0037034D01*
X0004476Y0036998D01*
X0004440Y0036960D01*
X0004407Y0036919D01*
X0004377Y0036875D01*
X0004350Y0036830D01*
X0004327Y0036783D01*
X0004306Y0036735D01*
X0004290Y0036685D01*
X0004277Y0036634D01*
X0004268Y0036582D01*
X0004262Y0036530D01*
X0004260Y0036477D01*
X0004260Y0035741D01*
X0006913Y0035741D01*
X0006913Y0036477D01*
X0006911Y0036530D01*
X0006905Y0036582D01*
X0006896Y0036634D01*
X0006883Y0036685D01*
X0006867Y0036735D01*
X0006846Y0036783D01*
X0006823Y0036830D01*
X0006796Y0036875D01*
X0006766Y0036919D01*
X0006733Y0036960D01*
X0006697Y0036998D01*
X0006659Y0037034D01*
X0006618Y0037067D01*
X0006574Y0037097D01*
X0006529Y0037124D01*
X0006482Y0037147D01*
X0006434Y0037168D01*
X0006384Y0037184D01*
X0006333Y0037197D01*
X0006281Y0037206D01*
X0006229Y0037212D01*
X0006176Y0037214D01*
X0006913Y0034380D02*
X0004260Y0034380D01*
X0004260Y0032906D02*
X0006913Y0034380D01*
X0006913Y0032906D02*
X0004260Y0032906D01*
X0004260Y0031545D02*
X0004260Y0030661D01*
X0004262Y0030615D01*
X0004267Y0030569D01*
X0004276Y0030523D01*
X0004289Y0030479D01*
X0004305Y0030435D01*
X0004324Y0030393D01*
X0004347Y0030353D01*
X0004373Y0030314D01*
X0004401Y0030278D01*
X0004433Y0030244D01*
X0004467Y0030212D01*
X0004503Y0030184D01*
X0004542Y0030158D01*
X0004582Y0030135D01*
X0004624Y0030116D01*
X0004668Y0030100D01*
X0004712Y0030087D01*
X0004758Y0030078D01*
X0004804Y0030073D01*
X0004850Y0030071D01*
X0006323Y0030071D01*
X0006323Y0030072D02*
X0006369Y0030074D01*
X0006415Y0030079D01*
X0006460Y0030088D01*
X0006505Y0030101D01*
X0006548Y0030117D01*
X0006590Y0030136D01*
X0006631Y0030159D01*
X0006669Y0030184D01*
X0006706Y0030213D01*
X0006739Y0030245D01*
X0006771Y0030278D01*
X0006800Y0030315D01*
X0006825Y0030353D01*
X0006848Y0030394D01*
X0006867Y0030436D01*
X0006883Y0030479D01*
X0006896Y0030524D01*
X0006905Y0030569D01*
X0006910Y0030615D01*
X0006912Y0030661D01*
X0006913Y0030661D02*
X0006913Y0031545D01*
X0005439Y0031545D01*
X0005439Y0031103D01*
X0035930Y0025374D02*
X0036519Y0025374D01*
X0036224Y0025374D02*
X0036224Y0022721D01*
X0035930Y0022721D02*
X0036519Y0022721D01*
X0037605Y0023310D02*
X0037605Y0024784D01*
X0037604Y0024784D02*
X0037606Y0024830D01*
X0037611Y0024876D01*
X0037620Y0024922D01*
X0037633Y0024966D01*
X0037649Y0025010D01*
X0037668Y0025052D01*
X0037691Y0025092D01*
X0037717Y0025131D01*
X0037745Y0025167D01*
X0037777Y0025201D01*
X0037811Y0025233D01*
X0037847Y0025261D01*
X0037886Y0025287D01*
X0037926Y0025310D01*
X0037968Y0025329D01*
X0038012Y0025345D01*
X0038056Y0025358D01*
X0038102Y0025367D01*
X0038148Y0025372D01*
X0038194Y0025374D01*
X0038784Y0025374D01*
X0039828Y0024784D02*
X0040565Y0025374D01*
X0040565Y0022721D01*
X0039828Y0022721D02*
X0041302Y0022721D01*
X0038784Y0022721D02*
X0038194Y0022721D01*
X0038148Y0022723D01*
X0038102Y0022728D01*
X0038057Y0022737D01*
X0038012Y0022750D01*
X0037969Y0022766D01*
X0037927Y0022785D01*
X0037886Y0022808D01*
X0037848Y0022833D01*
X0037811Y0022862D01*
X0037778Y0022894D01*
X0037746Y0022927D01*
X0037717Y0022964D01*
X0037692Y0023002D01*
X0037669Y0023043D01*
X0037650Y0023085D01*
X0037634Y0023128D01*
X0037621Y0023173D01*
X0037612Y0023218D01*
X0037607Y0023264D01*
X0037605Y0023310D01*
X0072427Y0038071D02*
X0072427Y0040724D01*
X0073164Y0040724D01*
X0073217Y0040722D01*
X0073269Y0040716D01*
X0073321Y0040707D01*
X0073372Y0040694D01*
X0073422Y0040678D01*
X0073470Y0040657D01*
X0073517Y0040634D01*
X0073562Y0040607D01*
X0073606Y0040577D01*
X0073647Y0040544D01*
X0073685Y0040508D01*
X0073721Y0040470D01*
X0073754Y0040429D01*
X0073784Y0040385D01*
X0073811Y0040340D01*
X0073834Y0040293D01*
X0073855Y0040245D01*
X0073871Y0040195D01*
X0073884Y0040144D01*
X0073893Y0040092D01*
X0073899Y0040040D01*
X0073901Y0039987D01*
X0073899Y0039934D01*
X0073893Y0039882D01*
X0073884Y0039830D01*
X0073871Y0039779D01*
X0073855Y0039729D01*
X0073834Y0039681D01*
X0073811Y0039634D01*
X0073784Y0039589D01*
X0073754Y0039545D01*
X0073721Y0039504D01*
X0073685Y0039466D01*
X0073647Y0039430D01*
X0073606Y0039397D01*
X0073562Y0039367D01*
X0073517Y0039340D01*
X0073470Y0039317D01*
X0073422Y0039296D01*
X0073372Y0039280D01*
X0073321Y0039267D01*
X0073269Y0039258D01*
X0073217Y0039252D01*
X0073164Y0039250D01*
X0072427Y0039250D01*
X0073311Y0039250D02*
X0073901Y0038071D01*
X0075065Y0038071D02*
X0075802Y0038071D01*
X0075855Y0038073D01*
X0075907Y0038079D01*
X0075959Y0038088D01*
X0076010Y0038101D01*
X0076060Y0038117D01*
X0076108Y0038138D01*
X0076155Y0038161D01*
X0076200Y0038188D01*
X0076244Y0038218D01*
X0076285Y0038251D01*
X0076323Y0038287D01*
X0076359Y0038325D01*
X0076392Y0038366D01*
X0076422Y0038410D01*
X0076449Y0038455D01*
X0076472Y0038502D01*
X0076493Y0038550D01*
X0076509Y0038600D01*
X0076522Y0038651D01*
X0076531Y0038703D01*
X0076537Y0038755D01*
X0076539Y0038808D01*
X0076537Y0038861D01*
X0076531Y0038913D01*
X0076522Y0038965D01*
X0076509Y0039016D01*
X0076493Y0039066D01*
X0076472Y0039114D01*
X0076449Y0039161D01*
X0076422Y0039206D01*
X0076392Y0039250D01*
X0076359Y0039291D01*
X0076323Y0039329D01*
X0076285Y0039365D01*
X0076244Y0039398D01*
X0076200Y0039428D01*
X0076155Y0039455D01*
X0076108Y0039478D01*
X0076060Y0039499D01*
X0076010Y0039515D01*
X0075959Y0039528D01*
X0075907Y0039537D01*
X0075855Y0039543D01*
X0075802Y0039545D01*
X0075949Y0039545D02*
X0075360Y0039545D01*
X0075949Y0039545D02*
X0075996Y0039547D01*
X0076044Y0039553D01*
X0076090Y0039562D01*
X0076136Y0039575D01*
X0076180Y0039592D01*
X0076223Y0039613D01*
X0076264Y0039636D01*
X0076303Y0039663D01*
X0076340Y0039693D01*
X0076375Y0039726D01*
X0076406Y0039762D01*
X0076435Y0039800D01*
X0076460Y0039840D01*
X0076482Y0039882D01*
X0076501Y0039926D01*
X0076516Y0039971D01*
X0076527Y0040017D01*
X0076535Y0040064D01*
X0076539Y0040111D01*
X0076539Y0040159D01*
X0076535Y0040206D01*
X0076527Y0040253D01*
X0076516Y0040299D01*
X0076501Y0040344D01*
X0076482Y0040388D01*
X0076460Y0040430D01*
X0076435Y0040470D01*
X0076406Y0040508D01*
X0076375Y0040544D01*
X0076340Y0040577D01*
X0076303Y0040607D01*
X0076264Y0040634D01*
X0076223Y0040657D01*
X0076180Y0040678D01*
X0076136Y0040695D01*
X0076090Y0040708D01*
X0076044Y0040717D01*
X0075996Y0040723D01*
X0075949Y0040725D01*
X0075949Y0040724D02*
X0075065Y0040724D01*
X0086361Y0025424D02*
X0087834Y0024172D01*
X0087834Y0025645D01*
X0085771Y0024171D02*
X0085717Y0024191D01*
X0085666Y0024213D01*
X0085616Y0024239D01*
X0085568Y0024268D01*
X0085521Y0024301D01*
X0085477Y0024336D01*
X0085436Y0024374D01*
X0085397Y0024415D01*
X0085361Y0024458D01*
X0085328Y0024504D01*
X0085298Y0024552D01*
X0085271Y0024601D01*
X0085247Y0024652D01*
X0085227Y0024705D01*
X0085211Y0024759D01*
X0085198Y0024814D01*
X0085188Y0024870D01*
X0085183Y0024926D01*
X0085181Y0024982D01*
X0085182Y0024982D02*
X0085184Y0025032D01*
X0085189Y0025081D01*
X0085199Y0025130D01*
X0085211Y0025177D01*
X0085228Y0025224D01*
X0085248Y0025270D01*
X0085271Y0025314D01*
X0085297Y0025355D01*
X0085327Y0025395D01*
X0085359Y0025433D01*
X0085394Y0025468D01*
X0085432Y0025500D01*
X0085472Y0025530D01*
X0085514Y0025556D01*
X0085557Y0025579D01*
X0085603Y0025599D01*
X0085650Y0025616D01*
X0085697Y0025628D01*
X0085746Y0025638D01*
X0085795Y0025643D01*
X0085845Y0025645D01*
X0085897Y0025643D01*
X0085949Y0025637D01*
X0086001Y0025628D01*
X0086052Y0025614D01*
X0086101Y0025597D01*
X0086149Y0025577D01*
X0086196Y0025553D01*
X0086240Y0025525D01*
X0086283Y0025494D01*
X0086323Y0025461D01*
X0086361Y0025424D01*
X0085181Y0023127D02*
X0085181Y0022538D01*
X0085183Y0022492D01*
X0085188Y0022446D01*
X0085197Y0022400D01*
X0085210Y0022356D01*
X0085226Y0022312D01*
X0085245Y0022270D01*
X0085268Y0022230D01*
X0085294Y0022191D01*
X0085322Y0022155D01*
X0085354Y0022121D01*
X0085388Y0022089D01*
X0085424Y0022061D01*
X0085463Y0022035D01*
X0085503Y0022012D01*
X0085545Y0021993D01*
X0085589Y0021977D01*
X0085633Y0021964D01*
X0085679Y0021955D01*
X0085725Y0021950D01*
X0085771Y0021948D01*
X0087245Y0021948D01*
X0087245Y0021949D02*
X0087291Y0021951D01*
X0087337Y0021956D01*
X0087382Y0021965D01*
X0087427Y0021978D01*
X0087470Y0021994D01*
X0087512Y0022013D01*
X0087553Y0022036D01*
X0087591Y0022061D01*
X0087628Y0022090D01*
X0087661Y0022122D01*
X0087693Y0022155D01*
X0087722Y0022192D01*
X0087747Y0022230D01*
X0087770Y0022271D01*
X0087789Y0022313D01*
X0087805Y0022356D01*
X0087818Y0022401D01*
X0087827Y0022446D01*
X0087832Y0022492D01*
X0087834Y0022538D01*
X0087834Y0023127D01*
X0116364Y0037087D02*
X0116364Y0039740D01*
X0117101Y0039740D01*
X0117154Y0039738D01*
X0117206Y0039732D01*
X0117258Y0039723D01*
X0117309Y0039710D01*
X0117359Y0039694D01*
X0117407Y0039673D01*
X0117454Y0039650D01*
X0117499Y0039623D01*
X0117543Y0039593D01*
X0117584Y0039560D01*
X0117622Y0039524D01*
X0117658Y0039486D01*
X0117691Y0039445D01*
X0117721Y0039401D01*
X0117748Y0039356D01*
X0117771Y0039309D01*
X0117792Y0039261D01*
X0117808Y0039211D01*
X0117821Y0039160D01*
X0117830Y0039108D01*
X0117836Y0039056D01*
X0117838Y0039003D01*
X0117836Y0038950D01*
X0117830Y0038898D01*
X0117821Y0038846D01*
X0117808Y0038795D01*
X0117792Y0038745D01*
X0117771Y0038697D01*
X0117748Y0038650D01*
X0117721Y0038605D01*
X0117691Y0038561D01*
X0117658Y0038520D01*
X0117622Y0038482D01*
X0117584Y0038446D01*
X0117543Y0038413D01*
X0117499Y0038383D01*
X0117454Y0038356D01*
X0117407Y0038333D01*
X0117359Y0038312D01*
X0117309Y0038296D01*
X0117258Y0038283D01*
X0117206Y0038274D01*
X0117154Y0038268D01*
X0117101Y0038266D01*
X0116364Y0038266D01*
X0117248Y0038266D02*
X0117838Y0037087D01*
X0119002Y0037087D02*
X0120255Y0038561D01*
X0119813Y0039740D02*
X0119757Y0039738D01*
X0119701Y0039733D01*
X0119645Y0039723D01*
X0119590Y0039710D01*
X0119536Y0039694D01*
X0119483Y0039674D01*
X0119432Y0039650D01*
X0119383Y0039623D01*
X0119335Y0039593D01*
X0119289Y0039560D01*
X0119246Y0039524D01*
X0119205Y0039485D01*
X0119167Y0039444D01*
X0119132Y0039400D01*
X0119099Y0039353D01*
X0119070Y0039305D01*
X0119044Y0039255D01*
X0119022Y0039204D01*
X0119002Y0039150D01*
X0120255Y0038561D02*
X0120292Y0038599D01*
X0120325Y0038639D01*
X0120356Y0038682D01*
X0120384Y0038726D01*
X0120408Y0038773D01*
X0120428Y0038821D01*
X0120445Y0038870D01*
X0120459Y0038921D01*
X0120468Y0038973D01*
X0120474Y0039025D01*
X0120476Y0039077D01*
X0120474Y0039127D01*
X0120469Y0039176D01*
X0120459Y0039225D01*
X0120447Y0039272D01*
X0120430Y0039319D01*
X0120410Y0039365D01*
X0120387Y0039409D01*
X0120361Y0039450D01*
X0120331Y0039490D01*
X0120299Y0039528D01*
X0120264Y0039563D01*
X0120226Y0039595D01*
X0120186Y0039625D01*
X0120145Y0039651D01*
X0120101Y0039674D01*
X0120055Y0039694D01*
X0120008Y0039711D01*
X0119961Y0039723D01*
X0119912Y0039733D01*
X0119863Y0039738D01*
X0119813Y0039740D01*
X0120476Y0037087D02*
X0119002Y0037087D01*
X0117962Y0030319D02*
X0117225Y0030319D01*
X0117225Y0027666D01*
X0117962Y0027666D01*
X0118015Y0027668D01*
X0118067Y0027674D01*
X0118119Y0027683D01*
X0118170Y0027696D01*
X0118220Y0027712D01*
X0118268Y0027733D01*
X0118315Y0027756D01*
X0118360Y0027783D01*
X0118404Y0027813D01*
X0118445Y0027846D01*
X0118483Y0027882D01*
X0118519Y0027920D01*
X0118552Y0027961D01*
X0118582Y0028005D01*
X0118609Y0028050D01*
X0118632Y0028097D01*
X0118653Y0028145D01*
X0118669Y0028195D01*
X0118682Y0028246D01*
X0118691Y0028298D01*
X0118697Y0028350D01*
X0118699Y0028403D01*
X0118698Y0028403D02*
X0118698Y0029582D01*
X0118699Y0029582D02*
X0118697Y0029635D01*
X0118691Y0029687D01*
X0118682Y0029739D01*
X0118669Y0029790D01*
X0118653Y0029840D01*
X0118632Y0029888D01*
X0118609Y0029935D01*
X0118582Y0029980D01*
X0118552Y0030024D01*
X0118519Y0030065D01*
X0118483Y0030103D01*
X0118445Y0030139D01*
X0118404Y0030172D01*
X0118360Y0030202D01*
X0118315Y0030229D01*
X0118268Y0030252D01*
X0118220Y0030273D01*
X0118170Y0030289D01*
X0118119Y0030302D01*
X0118067Y0030311D01*
X0118015Y0030317D01*
X0117962Y0030319D01*
X0119971Y0029729D02*
X0120708Y0030319D01*
X0120708Y0027666D01*
X0121444Y0027666D02*
X0119971Y0027666D01*
X0119752Y0019913D02*
X0119162Y0017850D01*
X0120636Y0017850D01*
X0120194Y0018439D02*
X0120194Y0017260D01*
X0117998Y0017260D02*
X0117408Y0018439D01*
X0117261Y0018439D02*
X0116524Y0018439D01*
X0117261Y0018439D02*
X0117314Y0018441D01*
X0117366Y0018447D01*
X0117418Y0018456D01*
X0117469Y0018469D01*
X0117519Y0018485D01*
X0117567Y0018506D01*
X0117614Y0018529D01*
X0117659Y0018556D01*
X0117703Y0018586D01*
X0117744Y0018619D01*
X0117782Y0018655D01*
X0117818Y0018693D01*
X0117851Y0018734D01*
X0117881Y0018778D01*
X0117908Y0018823D01*
X0117931Y0018870D01*
X0117952Y0018918D01*
X0117968Y0018968D01*
X0117981Y0019019D01*
X0117990Y0019071D01*
X0117996Y0019123D01*
X0117998Y0019176D01*
X0117996Y0019229D01*
X0117990Y0019281D01*
X0117981Y0019333D01*
X0117968Y0019384D01*
X0117952Y0019434D01*
X0117931Y0019482D01*
X0117908Y0019529D01*
X0117881Y0019574D01*
X0117851Y0019618D01*
X0117818Y0019659D01*
X0117782Y0019697D01*
X0117744Y0019733D01*
X0117703Y0019766D01*
X0117659Y0019796D01*
X0117614Y0019823D01*
X0117567Y0019846D01*
X0117519Y0019867D01*
X0117469Y0019883D01*
X0117418Y0019896D01*
X0117366Y0019905D01*
X0117314Y0019911D01*
X0117261Y0019913D01*
X0116524Y0019913D01*
X0116524Y0017260D01*
X0116524Y0049760D02*
X0116524Y0052413D01*
X0117261Y0052413D01*
X0117314Y0052411D01*
X0117366Y0052405D01*
X0117418Y0052396D01*
X0117469Y0052383D01*
X0117519Y0052367D01*
X0117567Y0052346D01*
X0117614Y0052323D01*
X0117659Y0052296D01*
X0117703Y0052266D01*
X0117744Y0052233D01*
X0117782Y0052197D01*
X0117818Y0052159D01*
X0117851Y0052118D01*
X0117881Y0052074D01*
X0117908Y0052029D01*
X0117931Y0051982D01*
X0117952Y0051934D01*
X0117968Y0051884D01*
X0117981Y0051833D01*
X0117990Y0051781D01*
X0117996Y0051729D01*
X0117998Y0051676D01*
X0117996Y0051623D01*
X0117990Y0051571D01*
X0117981Y0051519D01*
X0117968Y0051468D01*
X0117952Y0051418D01*
X0117931Y0051370D01*
X0117908Y0051323D01*
X0117881Y0051278D01*
X0117851Y0051234D01*
X0117818Y0051193D01*
X0117782Y0051155D01*
X0117744Y0051119D01*
X0117703Y0051086D01*
X0117659Y0051056D01*
X0117614Y0051029D01*
X0117567Y0051006D01*
X0117519Y0050985D01*
X0117469Y0050969D01*
X0117418Y0050956D01*
X0117366Y0050947D01*
X0117314Y0050941D01*
X0117261Y0050939D01*
X0116524Y0050939D01*
X0117408Y0050939D02*
X0117998Y0049760D01*
X0119162Y0049760D02*
X0120636Y0049760D01*
X0119899Y0049760D02*
X0119899Y0052413D01*
X0119162Y0051823D01*
X0206445Y0058870D02*
X0209098Y0059755D01*
X0206445Y0060639D01*
X0207035Y0061667D02*
X0208509Y0061667D01*
X0208555Y0061669D01*
X0208601Y0061674D01*
X0208646Y0061683D01*
X0208691Y0061696D01*
X0208734Y0061712D01*
X0208776Y0061731D01*
X0208817Y0061754D01*
X0208855Y0061779D01*
X0208892Y0061808D01*
X0208925Y0061840D01*
X0208957Y0061873D01*
X0208986Y0061910D01*
X0209011Y0061948D01*
X0209034Y0061989D01*
X0209053Y0062031D01*
X0209069Y0062074D01*
X0209082Y0062119D01*
X0209091Y0062164D01*
X0209096Y0062210D01*
X0209098Y0062256D01*
X0209098Y0062846D01*
X0208509Y0063881D02*
X0207035Y0063881D01*
X0206989Y0063883D01*
X0206943Y0063888D01*
X0206897Y0063897D01*
X0206853Y0063910D01*
X0206809Y0063926D01*
X0206767Y0063945D01*
X0206727Y0063968D01*
X0206688Y0063994D01*
X0206652Y0064022D01*
X0206618Y0064054D01*
X0206586Y0064088D01*
X0206558Y0064124D01*
X0206532Y0064163D01*
X0206509Y0064203D01*
X0206490Y0064245D01*
X0206474Y0064289D01*
X0206461Y0064333D01*
X0206452Y0064379D01*
X0206447Y0064425D01*
X0206445Y0064471D01*
X0206445Y0065060D01*
X0207182Y0066104D02*
X0208361Y0066104D01*
X0208414Y0066106D01*
X0208466Y0066112D01*
X0208518Y0066121D01*
X0208569Y0066134D01*
X0208619Y0066150D01*
X0208667Y0066171D01*
X0208714Y0066194D01*
X0208759Y0066221D01*
X0208803Y0066251D01*
X0208844Y0066284D01*
X0208882Y0066320D01*
X0208918Y0066358D01*
X0208951Y0066399D01*
X0208981Y0066443D01*
X0209008Y0066488D01*
X0209031Y0066535D01*
X0209052Y0066583D01*
X0209068Y0066633D01*
X0209081Y0066684D01*
X0209090Y0066736D01*
X0209096Y0066788D01*
X0209098Y0066841D01*
X0209096Y0066894D01*
X0209090Y0066946D01*
X0209081Y0066998D01*
X0209068Y0067049D01*
X0209052Y0067099D01*
X0209031Y0067147D01*
X0209008Y0067194D01*
X0208981Y0067239D01*
X0208951Y0067283D01*
X0208918Y0067324D01*
X0208882Y0067362D01*
X0208844Y0067398D01*
X0208803Y0067431D01*
X0208759Y0067461D01*
X0208714Y0067488D01*
X0208667Y0067511D01*
X0208619Y0067532D01*
X0208569Y0067548D01*
X0208518Y0067561D01*
X0208466Y0067570D01*
X0208414Y0067576D01*
X0208361Y0067578D01*
X0207182Y0067578D01*
X0207129Y0067576D01*
X0207077Y0067570D01*
X0207025Y0067561D01*
X0206974Y0067548D01*
X0206924Y0067532D01*
X0206876Y0067511D01*
X0206829Y0067488D01*
X0206784Y0067461D01*
X0206740Y0067431D01*
X0206699Y0067398D01*
X0206661Y0067362D01*
X0206625Y0067324D01*
X0206592Y0067283D01*
X0206562Y0067239D01*
X0206535Y0067194D01*
X0206512Y0067147D01*
X0206491Y0067099D01*
X0206475Y0067049D01*
X0206462Y0066998D01*
X0206453Y0066946D01*
X0206447Y0066894D01*
X0206445Y0066841D01*
X0206447Y0066788D01*
X0206453Y0066736D01*
X0206462Y0066684D01*
X0206475Y0066633D01*
X0206491Y0066583D01*
X0206512Y0066535D01*
X0206535Y0066488D01*
X0206562Y0066443D01*
X0206592Y0066399D01*
X0206625Y0066358D01*
X0206661Y0066320D01*
X0206699Y0066284D01*
X0206740Y0066251D01*
X0206784Y0066221D01*
X0206829Y0066194D01*
X0206876Y0066171D01*
X0206924Y0066150D01*
X0206974Y0066134D01*
X0207025Y0066121D01*
X0207077Y0066112D01*
X0207129Y0066106D01*
X0207182Y0066104D01*
X0209098Y0064471D02*
X0209096Y0064425D01*
X0209091Y0064379D01*
X0209082Y0064334D01*
X0209069Y0064289D01*
X0209053Y0064246D01*
X0209034Y0064204D01*
X0209011Y0064163D01*
X0208986Y0064125D01*
X0208957Y0064088D01*
X0208925Y0064055D01*
X0208892Y0064023D01*
X0208855Y0063994D01*
X0208817Y0063969D01*
X0208776Y0063946D01*
X0208734Y0063927D01*
X0208691Y0063911D01*
X0208646Y0063898D01*
X0208601Y0063889D01*
X0208555Y0063884D01*
X0208509Y0063882D01*
X0209098Y0064471D02*
X0209098Y0065060D01*
X0206445Y0062846D02*
X0206445Y0062256D01*
X0206447Y0062210D01*
X0206452Y0062164D01*
X0206461Y0062118D01*
X0206474Y0062074D01*
X0206490Y0062030D01*
X0206509Y0061988D01*
X0206532Y0061948D01*
X0206558Y0061909D01*
X0206586Y0061873D01*
X0206618Y0061839D01*
X0206652Y0061807D01*
X0206688Y0061779D01*
X0206727Y0061753D01*
X0206767Y0061730D01*
X0206809Y0061711D01*
X0206853Y0061695D01*
X0206897Y0061682D01*
X0206943Y0061673D01*
X0206989Y0061668D01*
X0207035Y0061666D01*
X0206445Y0068851D02*
X0208361Y0068851D01*
X0208361Y0068850D02*
X0208414Y0068852D01*
X0208466Y0068858D01*
X0208518Y0068867D01*
X0208569Y0068880D01*
X0208619Y0068896D01*
X0208667Y0068917D01*
X0208714Y0068940D01*
X0208759Y0068967D01*
X0208803Y0068997D01*
X0208844Y0069030D01*
X0208882Y0069066D01*
X0208918Y0069104D01*
X0208951Y0069145D01*
X0208981Y0069189D01*
X0209008Y0069234D01*
X0209031Y0069281D01*
X0209052Y0069329D01*
X0209068Y0069379D01*
X0209081Y0069430D01*
X0209090Y0069482D01*
X0209096Y0069534D01*
X0209098Y0069587D01*
X0209096Y0069640D01*
X0209090Y0069692D01*
X0209081Y0069744D01*
X0209068Y0069795D01*
X0209052Y0069845D01*
X0209031Y0069893D01*
X0209008Y0069940D01*
X0208981Y0069985D01*
X0208951Y0070029D01*
X0208918Y0070070D01*
X0208882Y0070108D01*
X0208844Y0070144D01*
X0208803Y0070177D01*
X0208759Y0070207D01*
X0208714Y0070234D01*
X0208667Y0070257D01*
X0208619Y0070278D01*
X0208569Y0070294D01*
X0208518Y0070307D01*
X0208466Y0070316D01*
X0208414Y0070322D01*
X0208361Y0070324D01*
X0206445Y0070324D01*
X0206445Y0071419D02*
X0206445Y0072893D01*
X0206445Y0072156D02*
X0209098Y0072156D01*
X0207430Y0052350D02*
X0207430Y0050876D01*
X0207430Y0051613D02*
X0210082Y0051613D01*
X0209345Y0049781D02*
X0207430Y0049781D01*
X0207430Y0048307D02*
X0209345Y0048307D01*
X0209398Y0048309D01*
X0209450Y0048315D01*
X0209502Y0048324D01*
X0209553Y0048337D01*
X0209603Y0048353D01*
X0209651Y0048374D01*
X0209698Y0048397D01*
X0209743Y0048424D01*
X0209787Y0048454D01*
X0209828Y0048487D01*
X0209866Y0048523D01*
X0209902Y0048561D01*
X0209935Y0048602D01*
X0209965Y0048646D01*
X0209992Y0048691D01*
X0210015Y0048738D01*
X0210036Y0048786D01*
X0210052Y0048836D01*
X0210065Y0048887D01*
X0210074Y0048939D01*
X0210080Y0048991D01*
X0210082Y0049044D01*
X0210080Y0049097D01*
X0210074Y0049149D01*
X0210065Y0049201D01*
X0210052Y0049252D01*
X0210036Y0049302D01*
X0210015Y0049350D01*
X0209992Y0049397D01*
X0209965Y0049442D01*
X0209935Y0049486D01*
X0209902Y0049527D01*
X0209866Y0049565D01*
X0209828Y0049601D01*
X0209787Y0049634D01*
X0209743Y0049664D01*
X0209698Y0049691D01*
X0209651Y0049714D01*
X0209603Y0049735D01*
X0209553Y0049751D01*
X0209502Y0049764D01*
X0209450Y0049773D01*
X0209398Y0049779D01*
X0209345Y0049781D01*
X0209345Y0047035D02*
X0208166Y0047035D01*
X0208113Y0047033D01*
X0208061Y0047027D01*
X0208009Y0047018D01*
X0207958Y0047005D01*
X0207908Y0046989D01*
X0207860Y0046968D01*
X0207813Y0046945D01*
X0207768Y0046918D01*
X0207724Y0046888D01*
X0207683Y0046855D01*
X0207645Y0046819D01*
X0207609Y0046781D01*
X0207576Y0046740D01*
X0207546Y0046696D01*
X0207519Y0046651D01*
X0207496Y0046604D01*
X0207475Y0046556D01*
X0207459Y0046506D01*
X0207446Y0046455D01*
X0207437Y0046403D01*
X0207431Y0046351D01*
X0207429Y0046298D01*
X0207431Y0046245D01*
X0207437Y0046193D01*
X0207446Y0046141D01*
X0207459Y0046090D01*
X0207475Y0046040D01*
X0207496Y0045992D01*
X0207519Y0045945D01*
X0207546Y0045900D01*
X0207576Y0045856D01*
X0207609Y0045815D01*
X0207645Y0045777D01*
X0207683Y0045741D01*
X0207724Y0045708D01*
X0207768Y0045678D01*
X0207813Y0045651D01*
X0207860Y0045628D01*
X0207908Y0045607D01*
X0207958Y0045591D01*
X0208009Y0045578D01*
X0208061Y0045569D01*
X0208113Y0045563D01*
X0208166Y0045561D01*
X0209345Y0045561D01*
X0209398Y0045563D01*
X0209450Y0045569D01*
X0209502Y0045578D01*
X0209553Y0045591D01*
X0209603Y0045607D01*
X0209651Y0045628D01*
X0209698Y0045651D01*
X0209743Y0045678D01*
X0209787Y0045708D01*
X0209828Y0045741D01*
X0209866Y0045777D01*
X0209902Y0045815D01*
X0209935Y0045856D01*
X0209965Y0045900D01*
X0209992Y0045945D01*
X0210015Y0045992D01*
X0210036Y0046040D01*
X0210052Y0046090D01*
X0210065Y0046141D01*
X0210074Y0046193D01*
X0210080Y0046245D01*
X0210082Y0046298D01*
X0210080Y0046351D01*
X0210074Y0046403D01*
X0210065Y0046455D01*
X0210052Y0046506D01*
X0210036Y0046556D01*
X0210015Y0046604D01*
X0209992Y0046651D01*
X0209965Y0046696D01*
X0209935Y0046740D01*
X0209902Y0046781D01*
X0209866Y0046819D01*
X0209828Y0046855D01*
X0209787Y0046888D01*
X0209743Y0046918D01*
X0209698Y0046945D01*
X0209651Y0046968D01*
X0209603Y0046989D01*
X0209553Y0047005D01*
X0209502Y0047018D01*
X0209450Y0047027D01*
X0209398Y0047033D01*
X0209345Y0047035D01*
X0209345Y0044289D02*
X0208166Y0044289D01*
X0208113Y0044287D01*
X0208061Y0044281D01*
X0208009Y0044272D01*
X0207958Y0044259D01*
X0207908Y0044243D01*
X0207860Y0044222D01*
X0207813Y0044199D01*
X0207768Y0044172D01*
X0207724Y0044142D01*
X0207683Y0044109D01*
X0207645Y0044073D01*
X0207609Y0044035D01*
X0207576Y0043994D01*
X0207546Y0043950D01*
X0207519Y0043905D01*
X0207496Y0043858D01*
X0207475Y0043810D01*
X0207459Y0043760D01*
X0207446Y0043709D01*
X0207437Y0043657D01*
X0207431Y0043605D01*
X0207429Y0043552D01*
X0207430Y0043552D02*
X0207430Y0042815D01*
X0210082Y0042815D01*
X0210082Y0043552D01*
X0210080Y0043605D01*
X0210074Y0043657D01*
X0210065Y0043709D01*
X0210052Y0043760D01*
X0210036Y0043810D01*
X0210015Y0043858D01*
X0209992Y0043905D01*
X0209965Y0043950D01*
X0209935Y0043994D01*
X0209902Y0044035D01*
X0209866Y0044073D01*
X0209828Y0044109D01*
X0209787Y0044142D01*
X0209743Y0044172D01*
X0209698Y0044199D01*
X0209651Y0044222D01*
X0209603Y0044243D01*
X0209553Y0044259D01*
X0209502Y0044272D01*
X0209450Y0044281D01*
X0209398Y0044287D01*
X0209345Y0044289D01*
X0210082Y0041454D02*
X0207430Y0041454D01*
X0207430Y0039981D02*
X0210082Y0041454D01*
X0210082Y0039981D02*
X0207430Y0039981D01*
X0207430Y0038620D02*
X0207430Y0037735D01*
X0207429Y0037735D02*
X0207431Y0037689D01*
X0207436Y0037643D01*
X0207445Y0037597D01*
X0207458Y0037553D01*
X0207474Y0037509D01*
X0207493Y0037467D01*
X0207516Y0037427D01*
X0207542Y0037388D01*
X0207570Y0037352D01*
X0207602Y0037318D01*
X0207636Y0037286D01*
X0207672Y0037258D01*
X0207711Y0037232D01*
X0207751Y0037209D01*
X0207793Y0037190D01*
X0207837Y0037174D01*
X0207881Y0037161D01*
X0207927Y0037152D01*
X0207973Y0037147D01*
X0208019Y0037145D01*
X0208019Y0037146D02*
X0209493Y0037146D01*
X0209539Y0037148D01*
X0209585Y0037153D01*
X0209630Y0037162D01*
X0209675Y0037175D01*
X0209718Y0037191D01*
X0209760Y0037210D01*
X0209801Y0037233D01*
X0209839Y0037258D01*
X0209876Y0037287D01*
X0209909Y0037319D01*
X0209941Y0037352D01*
X0209970Y0037389D01*
X0209995Y0037427D01*
X0210018Y0037468D01*
X0210037Y0037510D01*
X0210053Y0037553D01*
X0210066Y0037598D01*
X0210075Y0037643D01*
X0210080Y0037689D01*
X0210082Y0037735D01*
X0210082Y0038620D01*
X0208609Y0038620D01*
X0208609Y0038178D01*
X0009039Y0073692D02*
X0006386Y0074576D01*
X0006976Y0075604D02*
X0008449Y0075604D01*
X0008495Y0075606D01*
X0008541Y0075611D01*
X0008586Y0075620D01*
X0008631Y0075633D01*
X0008674Y0075649D01*
X0008716Y0075668D01*
X0008757Y0075691D01*
X0008795Y0075716D01*
X0008832Y0075745D01*
X0008865Y0075777D01*
X0008897Y0075810D01*
X0008926Y0075847D01*
X0008951Y0075885D01*
X0008974Y0075926D01*
X0008993Y0075968D01*
X0009009Y0076011D01*
X0009022Y0076056D01*
X0009031Y0076101D01*
X0009036Y0076147D01*
X0009038Y0076193D01*
X0009039Y0076193D02*
X0009039Y0076783D01*
X0008449Y0077818D02*
X0006976Y0077818D01*
X0006930Y0077820D01*
X0006884Y0077825D01*
X0006838Y0077834D01*
X0006794Y0077847D01*
X0006750Y0077863D01*
X0006708Y0077882D01*
X0006668Y0077905D01*
X0006629Y0077931D01*
X0006593Y0077959D01*
X0006559Y0077991D01*
X0006527Y0078025D01*
X0006499Y0078061D01*
X0006473Y0078100D01*
X0006450Y0078140D01*
X0006431Y0078182D01*
X0006415Y0078226D01*
X0006402Y0078270D01*
X0006393Y0078316D01*
X0006388Y0078362D01*
X0006386Y0078408D01*
X0006386Y0078997D01*
X0006386Y0079952D02*
X0006386Y0080542D01*
X0006386Y0080247D02*
X0009039Y0080247D01*
X0009039Y0079952D02*
X0009039Y0080542D01*
X0009039Y0081725D02*
X0006386Y0081725D01*
X0009039Y0083198D01*
X0006386Y0083198D01*
X0009039Y0078997D02*
X0009039Y0078408D01*
X0009038Y0078408D02*
X0009036Y0078362D01*
X0009031Y0078316D01*
X0009022Y0078271D01*
X0009009Y0078226D01*
X0008993Y0078183D01*
X0008974Y0078141D01*
X0008951Y0078100D01*
X0008926Y0078062D01*
X0008897Y0078025D01*
X0008865Y0077992D01*
X0008832Y0077960D01*
X0008795Y0077931D01*
X0008757Y0077906D01*
X0008716Y0077883D01*
X0008674Y0077864D01*
X0008631Y0077848D01*
X0008586Y0077835D01*
X0008541Y0077826D01*
X0008495Y0077821D01*
X0008449Y0077819D01*
X0006386Y0076193D02*
X0006388Y0076147D01*
X0006393Y0076101D01*
X0006402Y0076055D01*
X0006415Y0076011D01*
X0006431Y0075967D01*
X0006450Y0075925D01*
X0006473Y0075885D01*
X0006499Y0075846D01*
X0006527Y0075810D01*
X0006559Y0075776D01*
X0006593Y0075744D01*
X0006629Y0075716D01*
X0006668Y0075690D01*
X0006708Y0075667D01*
X0006750Y0075648D01*
X0006794Y0075632D01*
X0006838Y0075619D01*
X0006884Y0075610D01*
X0006930Y0075605D01*
X0006976Y0075603D01*
X0006386Y0076193D02*
X0006386Y0076783D01*
X0006386Y0072807D02*
X0009039Y0073692D01*
D14*
X0125000Y0028579D03*
D15*
X0128750Y0028579D03*
X0108250Y0028579D03*
D16*
X0143000Y0046000D02*
X0143000Y0078500D01*
X0179000Y0078500D01*
X0179000Y0046000D01*
X0143000Y0046000D01*
D17*
X0154405Y0078900D02*
X0154705Y0079700D01*
X0154705Y0079900D01*
X0154505Y0079900D01*
X0154505Y0079700D01*
X0154705Y0079700D01*
X0156140Y0079700D02*
X0157340Y0079700D01*
X0157395Y0079702D01*
X0157449Y0079707D01*
X0157503Y0079717D01*
X0157556Y0079730D01*
X0157608Y0079746D01*
X0157659Y0079766D01*
X0157708Y0079790D01*
X0157756Y0079816D01*
X0157801Y0079846D01*
X0157845Y0079879D01*
X0157886Y0079915D01*
X0157925Y0079954D01*
X0157961Y0079995D01*
X0157994Y0080039D01*
X0158024Y0080084D01*
X0158050Y0080132D01*
X0158074Y0080181D01*
X0158094Y0080232D01*
X0158110Y0080284D01*
X0158123Y0080337D01*
X0158133Y0080391D01*
X0158138Y0080445D01*
X0158140Y0080500D01*
X0158140Y0080900D01*
X0158138Y0080955D01*
X0158133Y0081009D01*
X0158123Y0081063D01*
X0158110Y0081116D01*
X0158094Y0081168D01*
X0158074Y0081219D01*
X0158050Y0081268D01*
X0158024Y0081316D01*
X0157994Y0081361D01*
X0157961Y0081405D01*
X0157925Y0081446D01*
X0157886Y0081485D01*
X0157845Y0081521D01*
X0157801Y0081554D01*
X0157756Y0081584D01*
X0157708Y0081610D01*
X0157659Y0081634D01*
X0157608Y0081654D01*
X0157556Y0081670D01*
X0157503Y0081683D01*
X0157449Y0081693D01*
X0157395Y0081698D01*
X0157340Y0081700D01*
X0156140Y0081700D01*
X0156140Y0083300D01*
X0158140Y0083300D01*
X0159900Y0082100D02*
X0161700Y0082100D01*
X0161747Y0082098D01*
X0161794Y0082093D01*
X0161840Y0082083D01*
X0161885Y0082071D01*
X0161930Y0082054D01*
X0161972Y0082035D01*
X0162013Y0082012D01*
X0162053Y0081985D01*
X0162090Y0081956D01*
X0162124Y0081924D01*
X0162156Y0081890D01*
X0162185Y0081853D01*
X0162212Y0081813D01*
X0162235Y0081772D01*
X0162254Y0081730D01*
X0162271Y0081685D01*
X0162283Y0081640D01*
X0162293Y0081594D01*
X0162298Y0081547D01*
X0162300Y0081500D01*
X0162300Y0079700D01*
X0161100Y0079700D02*
X0161100Y0082100D01*
X0159900Y0082100D02*
X0159900Y0079700D01*
X0164220Y0079700D02*
X0164220Y0082100D01*
X0166020Y0082100D01*
X0166067Y0082098D01*
X0166114Y0082093D01*
X0166160Y0082083D01*
X0166205Y0082071D01*
X0166250Y0082054D01*
X0166292Y0082035D01*
X0166333Y0082012D01*
X0166373Y0081985D01*
X0166410Y0081956D01*
X0166444Y0081924D01*
X0166476Y0081890D01*
X0166505Y0081853D01*
X0166532Y0081813D01*
X0166555Y0081772D01*
X0166574Y0081730D01*
X0166591Y0081685D01*
X0166603Y0081640D01*
X0166613Y0081594D01*
X0166618Y0081547D01*
X0166620Y0081500D01*
X0166620Y0079700D01*
X0165420Y0079700D02*
X0165420Y0082100D01*
X0153100Y0083300D02*
X0152100Y0079700D01*
X0149500Y0079700D02*
X0147500Y0079700D01*
X0148500Y0079700D02*
X0148500Y0083300D01*
X0147500Y0082500D01*
X0144900Y0083300D02*
X0146100Y0079700D01*
X0145800Y0080600D02*
X0144000Y0080600D01*
X0143700Y0079700D02*
X0144900Y0083300D01*
X0151100Y0083300D02*
X0151100Y0082900D01*
X0151100Y0083300D02*
X0153100Y0083300D01*
D18*
X0151000Y0031250D03*
X0161000Y0031250D03*
X0171000Y0031250D03*
D19*
X0171000Y0038000D03*
X0161000Y0038000D03*
X0151000Y0038000D03*
D20*
X0150550Y0069350D02*
X0149150Y0070750D01*
X0149850Y0071100D02*
X0149850Y0073900D01*
X0149848Y0073982D01*
X0149842Y0074064D01*
X0149833Y0074145D01*
X0149819Y0074226D01*
X0149802Y0074307D01*
X0149781Y0074386D01*
X0149757Y0074464D01*
X0149728Y0074541D01*
X0149696Y0074617D01*
X0149661Y0074691D01*
X0149622Y0074763D01*
X0149580Y0074834D01*
X0149535Y0074902D01*
X0149486Y0074968D01*
X0149435Y0075032D01*
X0149380Y0075093D01*
X0149323Y0075152D01*
X0149263Y0075208D01*
X0149200Y0075261D01*
X0149135Y0075311D01*
X0149068Y0075358D01*
X0148999Y0075402D01*
X0148927Y0075442D01*
X0148854Y0075479D01*
X0148779Y0075513D01*
X0148703Y0075543D01*
X0148625Y0075569D01*
X0148546Y0075592D01*
X0148467Y0075611D01*
X0148386Y0075626D01*
X0148305Y0075638D01*
X0148223Y0075646D01*
X0148141Y0075650D01*
X0148059Y0075650D01*
X0147977Y0075646D01*
X0147895Y0075638D01*
X0147814Y0075626D01*
X0147733Y0075611D01*
X0147654Y0075592D01*
X0147575Y0075569D01*
X0147497Y0075543D01*
X0147421Y0075513D01*
X0147346Y0075479D01*
X0147273Y0075442D01*
X0147201Y0075402D01*
X0147132Y0075358D01*
X0147065Y0075311D01*
X0147000Y0075261D01*
X0146937Y0075208D01*
X0146877Y0075152D01*
X0146820Y0075093D01*
X0146765Y0075032D01*
X0146714Y0074968D01*
X0146665Y0074902D01*
X0146620Y0074834D01*
X0146578Y0074763D01*
X0146539Y0074691D01*
X0146504Y0074617D01*
X0146472Y0074541D01*
X0146443Y0074464D01*
X0146419Y0074386D01*
X0146398Y0074307D01*
X0146381Y0074226D01*
X0146367Y0074145D01*
X0146358Y0074064D01*
X0146352Y0073982D01*
X0146350Y0073900D01*
X0146350Y0071100D01*
X0146352Y0071018D01*
X0146358Y0070936D01*
X0146367Y0070855D01*
X0146381Y0070774D01*
X0146398Y0070693D01*
X0146419Y0070614D01*
X0146443Y0070536D01*
X0146472Y0070459D01*
X0146504Y0070383D01*
X0146539Y0070309D01*
X0146578Y0070237D01*
X0146620Y0070166D01*
X0146665Y0070098D01*
X0146714Y0070032D01*
X0146765Y0069968D01*
X0146820Y0069907D01*
X0146877Y0069848D01*
X0146937Y0069792D01*
X0147000Y0069739D01*
X0147065Y0069689D01*
X0147132Y0069642D01*
X0147201Y0069598D01*
X0147273Y0069558D01*
X0147346Y0069521D01*
X0147421Y0069487D01*
X0147497Y0069457D01*
X0147575Y0069431D01*
X0147654Y0069408D01*
X0147733Y0069389D01*
X0147814Y0069374D01*
X0147895Y0069362D01*
X0147977Y0069354D01*
X0148059Y0069350D01*
X0148141Y0069350D01*
X0148223Y0069354D01*
X0148305Y0069362D01*
X0148386Y0069374D01*
X0148467Y0069389D01*
X0148546Y0069408D01*
X0148625Y0069431D01*
X0148703Y0069457D01*
X0148779Y0069487D01*
X0148854Y0069521D01*
X0148927Y0069558D01*
X0148999Y0069598D01*
X0149068Y0069642D01*
X0149135Y0069689D01*
X0149200Y0069739D01*
X0149263Y0069792D01*
X0149323Y0069848D01*
X0149380Y0069907D01*
X0149435Y0069968D01*
X0149486Y0070032D01*
X0149535Y0070098D01*
X0149580Y0070166D01*
X0149622Y0070237D01*
X0149661Y0070309D01*
X0149696Y0070383D01*
X0149728Y0070459D01*
X0149757Y0070536D01*
X0149781Y0070614D01*
X0149802Y0070693D01*
X0149819Y0070774D01*
X0149833Y0070855D01*
X0149842Y0070936D01*
X0149848Y0071018D01*
X0149850Y0071100D01*
M02*
