G75*
%MOIN*%
%OFA0B0*%
%FSLAX25Y25*%
%IPPOS*%
%LPD*%
%AMOC8*
5,1,8,0,0,1.08239X$1,22.5*
%
%ADD10OC8,0.05200*%
%ADD11OC8,0.06300*%
%ADD12C,0.06300*%
%ADD13C,0.05200*%
%ADD14OC8,0.08500*%
%ADD15C,0.06600*%
%ADD16C,0.05000*%
%ADD17C,0.01200*%
%ADD18C,0.02000*%
D10*
X0063500Y0038500D03*
X0093500Y0038500D03*
X0103500Y0038500D03*
X0103500Y0051000D03*
X0133500Y0051000D03*
X0133500Y0038500D03*
X0133500Y0018500D03*
X0103500Y0018500D03*
X0031000Y0061000D03*
X0021000Y0061000D03*
D11*
X0081000Y0018500D03*
D12*
X0081000Y0028500D03*
D13*
X0100900Y0028579D02*
X0106100Y0028579D01*
X0130900Y0028579D02*
X0136100Y0028579D01*
X0056100Y0028500D02*
X0050900Y0028500D01*
X0050900Y0038500D02*
X0056100Y0038500D01*
X0056100Y0048500D02*
X0050900Y0048500D01*
X0026100Y0048500D02*
X0020900Y0048500D01*
X0020900Y0038500D02*
X0026100Y0038500D01*
X0026100Y0028500D02*
X0020900Y0028500D01*
X0020900Y0018500D02*
X0026100Y0018500D01*
X0050900Y0018500D02*
X0056100Y0018500D01*
D14*
X0011000Y0048500D03*
X0011000Y0066000D03*
X0198500Y0066000D03*
X0198500Y0046000D03*
D15*
X0171000Y0026800D02*
X0171000Y0020200D01*
X0161000Y0020200D02*
X0161000Y0026800D01*
X0151000Y0026800D02*
X0151000Y0020200D01*
D16*
X0021000Y0008500D02*
X0011000Y0018500D01*
X0011000Y0048500D01*
X0021000Y0008500D02*
X0053500Y0008500D01*
X0081000Y0008500D01*
X0181000Y0008500D01*
X0198500Y0026000D01*
X0198500Y0046000D01*
D17*
X0081000Y0018500D02*
X0081000Y0008500D01*
D18*
X0088500Y0016000D02*
X0091000Y0013500D01*
X0103500Y0013500D01*
X0103500Y0018500D01*
X0103500Y0013500D02*
X0143500Y0013500D01*
X0151000Y0021000D01*
X0151000Y0023500D01*
X0143500Y0023500D02*
X0143500Y0028500D01*
X0133579Y0028500D01*
X0133500Y0028579D01*
X0143500Y0028500D02*
X0143500Y0036000D01*
X0136000Y0043500D01*
X0136000Y0048500D01*
X0133500Y0051000D01*
X0136000Y0053500D01*
X0136000Y0106000D01*
X0138500Y0108500D01*
X0183500Y0108500D01*
X0186000Y0106000D01*
X0186000Y0028500D01*
X0176000Y0018500D01*
X0173500Y0018500D01*
X0171000Y0021000D01*
X0171000Y0023500D01*
X0161000Y0023500D02*
X0161000Y0017600D01*
X0165100Y0013500D01*
X0176000Y0013500D01*
X0191000Y0028500D01*
X0191000Y0051000D01*
X0198500Y0058500D01*
X0198500Y0066000D01*
X0133500Y0051000D02*
X0128500Y0056000D01*
X0101000Y0056000D01*
X0096000Y0051000D01*
X0088500Y0051000D01*
X0081000Y0043500D01*
X0066000Y0043500D01*
X0061000Y0048500D01*
X0053500Y0048500D01*
X0038500Y0048500D01*
X0033500Y0043500D01*
X0018500Y0043500D01*
X0016000Y0041000D01*
X0016000Y0021000D01*
X0018500Y0018500D01*
X0023500Y0018500D01*
X0043500Y0028500D02*
X0033500Y0038500D01*
X0023500Y0038500D01*
X0023500Y0048500D02*
X0031000Y0056000D01*
X0031000Y0061000D01*
X0036000Y0063500D02*
X0036000Y0056000D01*
X0038500Y0053500D01*
X0048500Y0053500D01*
X0053500Y0048500D01*
X0053500Y0038500D02*
X0063500Y0038500D01*
X0058500Y0028500D02*
X0053500Y0028500D01*
X0081000Y0028500D01*
X0081000Y0038500D01*
X0088500Y0046000D01*
X0098500Y0046000D01*
X0123500Y0046000D01*
X0133500Y0038500D01*
X0143500Y0023500D02*
X0138500Y0018500D01*
X0133500Y0018500D01*
X0103500Y0028579D02*
X0103500Y0038500D01*
X0093500Y0038500D02*
X0088500Y0033500D01*
X0088500Y0016000D01*
X0053500Y0018500D02*
X0053500Y0008500D01*
X0053500Y0028500D02*
X0043500Y0028500D01*
X0021000Y0058500D02*
X0011000Y0048500D01*
X0021000Y0058500D02*
X0021000Y0061000D01*
X0011000Y0066000D02*
X0033500Y0066000D01*
X0036000Y0063500D01*
X0098500Y0046000D02*
X0103500Y0051000D01*
M02*
