G75*
%MOIN*%
%OFA0B0*%
%FSLAX25Y25*%
%IPPOS*%
%LPD*%
%AMOC8*
5,1,8,0,0,1.08239X$1,22.5*
%
%ADD10OC8,0.05200*%
%ADD11OC8,0.06300*%
%ADD12C,0.06300*%
%ADD13C,0.05200*%
%ADD14OC8,0.08500*%
%ADD15C,0.06600*%
D10*
X0026000Y0061000D03*
X0036000Y0061000D03*
X0091000Y0051000D03*
X0121000Y0051000D03*
X0136000Y0071000D03*
X0121000Y0076000D03*
X0136000Y0101000D03*
X0121000Y0106000D03*
X0156000Y0121000D03*
X0186000Y0121000D03*
D11*
X0106000Y0026000D03*
D12*
X0106000Y0036000D03*
D13*
X0053600Y0031000D02*
X0048400Y0031000D01*
X0048400Y0041000D02*
X0053600Y0041000D01*
X0053600Y0051000D02*
X0048400Y0051000D01*
X0048400Y0061000D02*
X0053600Y0061000D01*
X0078400Y0061000D02*
X0083600Y0061000D01*
X0083600Y0051000D02*
X0078400Y0051000D01*
X0078400Y0041000D02*
X0083600Y0041000D01*
X0083600Y0031000D02*
X0078400Y0031000D01*
X0153400Y0136000D02*
X0158600Y0136000D01*
X0183400Y0136000D02*
X0188600Y0136000D01*
D14*
X0211000Y0096000D03*
X0211000Y0076000D03*
X0016000Y0076000D03*
X0016000Y0096000D03*
D15*
X0161000Y0034300D02*
X0161000Y0027700D01*
X0171000Y0027700D02*
X0171000Y0034300D01*
X0181000Y0034300D02*
X0181000Y0027700D01*
M02*
