%
M48
M72
T01C0.03200
T02C0.04000
T03C0.04400
%
T01
X51000Y31000
X51000Y41000
X51000Y51000
X51000Y61000
X36000Y61000
X26000Y61000
X81000Y61000
X81000Y51000
X91000Y51000
X81000Y41000
X81000Y31000
X106000Y26000
X106000Y36000
X121000Y51000
X136000Y71000
X121000Y76000
X136000Y101000
X121000Y106000
X156000Y121000
X156000Y136000
X186000Y136000
X186000Y121000
T02
X211000Y96000
X211000Y76000
X16000Y76000
X16000Y96000
T03
X161000Y31000
X171000Y31000
X181000Y31000
M30
