G75*
%MOIN*%
%OFA0B0*%
%FSLAX25Y25*%
%IPPOS*%
%LPD*%
%AMOC8*
5,1,8,0,0,1.08239X$1,22.5*
%
%ADD10OC8,0.05200*%
%ADD11OC8,0.06300*%
%ADD12C,0.06300*%
%ADD13C,0.05200*%
%ADD14OC8,0.08500*%
%ADD15C,0.06600*%
%ADD16C,0.05906*%
%ADD17C,0.02000*%
%ADD18C,0.01200*%
D10*
X0026000Y0061000D03*
X0036000Y0061000D03*
X0091000Y0051000D03*
X0121000Y0051000D03*
X0136000Y0071000D03*
X0121000Y0076000D03*
X0136000Y0101000D03*
X0121000Y0106000D03*
X0156000Y0121000D03*
X0186000Y0121000D03*
D11*
X0106000Y0026000D03*
D12*
X0106000Y0036000D03*
D13*
X0083600Y0031000D02*
X0078400Y0031000D01*
X0078400Y0041000D02*
X0083600Y0041000D01*
X0083600Y0051000D02*
X0078400Y0051000D01*
X0078400Y0061000D02*
X0083600Y0061000D01*
X0053600Y0061000D02*
X0048400Y0061000D01*
X0048400Y0051000D02*
X0053600Y0051000D01*
X0053600Y0041000D02*
X0048400Y0041000D01*
X0048400Y0031000D02*
X0053600Y0031000D01*
X0153400Y0136000D02*
X0158600Y0136000D01*
X0183400Y0136000D02*
X0188600Y0136000D01*
D14*
X0211000Y0096000D03*
X0211000Y0076000D03*
X0016000Y0076000D03*
X0016000Y0096000D03*
D15*
X0161000Y0034300D02*
X0161000Y0027700D01*
X0171000Y0027700D02*
X0171000Y0034300D01*
X0181000Y0034300D02*
X0181000Y0027700D01*
D16*
X0046000Y0011000D02*
X0016000Y0041000D01*
X0016000Y0061000D01*
X0016000Y0076000D01*
X0046000Y0011000D02*
X0106000Y0011000D01*
X0191000Y0011000D01*
X0211000Y0031000D01*
X0211000Y0076000D01*
D17*
X0201000Y0086000D02*
X0201000Y0031000D01*
X0191000Y0021000D01*
X0176000Y0021000D01*
X0171000Y0026000D01*
X0171000Y0031000D01*
X0181000Y0031000D02*
X0191000Y0031000D01*
X0196000Y0036000D01*
X0196000Y0121000D01*
X0186000Y0121000D01*
X0196000Y0121000D02*
X0196000Y0136000D01*
X0186000Y0136000D01*
X0196000Y0136000D02*
X0196000Y0141000D01*
X0186000Y0151000D01*
X0121000Y0151000D01*
X0041000Y0151000D01*
X0016000Y0126000D01*
X0016000Y0096000D01*
X0021000Y0096000D01*
X0026000Y0091000D01*
X0026000Y0071000D01*
X0031000Y0066000D01*
X0061000Y0066000D01*
X0066000Y0061000D01*
X0081000Y0061000D01*
X0081000Y0051000D02*
X0091000Y0051000D01*
X0086000Y0041000D02*
X0081000Y0041000D01*
X0071000Y0041000D01*
X0061000Y0051000D01*
X0051000Y0051000D01*
X0081000Y0031000D02*
X0086000Y0031000D01*
X0091000Y0026000D01*
X0106000Y0026000D01*
X0106000Y0011000D01*
X0106000Y0036000D02*
X0091000Y0036000D01*
X0086000Y0041000D01*
X0106000Y0036000D02*
X0106000Y0056000D01*
X0111000Y0061000D01*
X0116000Y0061000D01*
X0121000Y0066000D01*
X0121000Y0076000D01*
X0126000Y0061000D02*
X0136000Y0071000D01*
X0126000Y0061000D02*
X0116000Y0061000D01*
X0121000Y0051000D02*
X0136000Y0051000D01*
X0141000Y0046000D01*
X0141000Y0036000D01*
X0146000Y0031000D01*
X0161000Y0031000D01*
X0136000Y0051000D02*
X0141000Y0056000D01*
X0141000Y0116000D01*
X0146000Y0121000D01*
X0156000Y0121000D01*
X0151000Y0126000D02*
X0156000Y0131000D01*
X0156000Y0136000D01*
X0151000Y0126000D02*
X0146000Y0126000D01*
X0136000Y0116000D01*
X0136000Y0101000D01*
X0201000Y0086000D02*
X0211000Y0096000D01*
D18*
X0121000Y0106000D02*
X0121000Y0151000D01*
X0066000Y0061000D02*
X0061000Y0056000D01*
X0046000Y0056000D01*
X0041000Y0051000D01*
X0041000Y0036000D01*
X0046000Y0031000D01*
X0051000Y0031000D01*
X0051000Y0061000D02*
X0036000Y0061000D01*
X0026000Y0061000D02*
X0016000Y0061000D01*
M02*
