G75*
%MOIN*%
%OFA0B0*%
%FSLAX25Y25*%
%IPPOS*%
%LPD*%
%AMOC8*
5,1,8,0,0,1.08239X$1,22.5*
%
%ADD10C,0.00000*%
%ADD11C,0.00600*%
%ADD12C,0.01000*%
%ADD13C,0.00300*%
%ADD14R,0.02000X0.08000*%
%ADD15R,0.02500X0.02000*%
%ADD16C,0.00200*%
%ADD17C,0.00400*%
%ADD18R,0.03000X0.02500*%
%ADD19R,0.05000X0.11000*%
%ADD20C,0.00700*%
D10*
X0001000Y0001000D02*
X0001000Y0160961D01*
X0229701Y0160961D01*
X0229701Y0001000D01*
X0001000Y0001000D01*
D11*
X0054500Y0026000D02*
X0062000Y0026000D01*
X0062002Y0026126D01*
X0062008Y0026251D01*
X0062018Y0026376D01*
X0062032Y0026501D01*
X0062049Y0026626D01*
X0062071Y0026750D01*
X0062096Y0026873D01*
X0062126Y0026995D01*
X0062159Y0027116D01*
X0062196Y0027236D01*
X0062236Y0027355D01*
X0062281Y0027472D01*
X0062329Y0027589D01*
X0062381Y0027703D01*
X0062436Y0027816D01*
X0062495Y0027927D01*
X0062557Y0028036D01*
X0062623Y0028143D01*
X0062692Y0028248D01*
X0062764Y0028351D01*
X0062839Y0028452D01*
X0062918Y0028550D01*
X0063000Y0028645D01*
X0063084Y0028738D01*
X0063172Y0028828D01*
X0063262Y0028916D01*
X0063355Y0029000D01*
X0063450Y0029082D01*
X0063548Y0029161D01*
X0063649Y0029236D01*
X0063752Y0029308D01*
X0063857Y0029377D01*
X0063964Y0029443D01*
X0064073Y0029505D01*
X0064184Y0029564D01*
X0064297Y0029619D01*
X0064411Y0029671D01*
X0064528Y0029719D01*
X0064645Y0029764D01*
X0064764Y0029804D01*
X0064884Y0029841D01*
X0065005Y0029874D01*
X0065127Y0029904D01*
X0065250Y0029929D01*
X0065374Y0029951D01*
X0065499Y0029968D01*
X0065624Y0029982D01*
X0065749Y0029992D01*
X0065874Y0029998D01*
X0066000Y0030000D01*
X0066126Y0029998D01*
X0066251Y0029992D01*
X0066376Y0029982D01*
X0066501Y0029968D01*
X0066626Y0029951D01*
X0066750Y0029929D01*
X0066873Y0029904D01*
X0066995Y0029874D01*
X0067116Y0029841D01*
X0067236Y0029804D01*
X0067355Y0029764D01*
X0067472Y0029719D01*
X0067589Y0029671D01*
X0067703Y0029619D01*
X0067816Y0029564D01*
X0067927Y0029505D01*
X0068036Y0029443D01*
X0068143Y0029377D01*
X0068248Y0029308D01*
X0068351Y0029236D01*
X0068452Y0029161D01*
X0068550Y0029082D01*
X0068645Y0029000D01*
X0068738Y0028916D01*
X0068828Y0028828D01*
X0068916Y0028738D01*
X0069000Y0028645D01*
X0069082Y0028550D01*
X0069161Y0028452D01*
X0069236Y0028351D01*
X0069308Y0028248D01*
X0069377Y0028143D01*
X0069443Y0028036D01*
X0069505Y0027927D01*
X0069564Y0027816D01*
X0069619Y0027703D01*
X0069671Y0027589D01*
X0069719Y0027472D01*
X0069764Y0027355D01*
X0069804Y0027236D01*
X0069841Y0027116D01*
X0069874Y0026995D01*
X0069904Y0026873D01*
X0069929Y0026750D01*
X0069951Y0026626D01*
X0069968Y0026501D01*
X0069982Y0026376D01*
X0069992Y0026251D01*
X0069998Y0026126D01*
X0070000Y0026000D01*
X0077500Y0026000D01*
X0077500Y0066000D01*
X0054500Y0066000D01*
X0054500Y0026000D01*
X0094500Y0046500D02*
X0096000Y0046500D01*
X0096500Y0047000D01*
X0115500Y0047000D01*
X0116000Y0046500D01*
X0117500Y0046500D01*
X0117560Y0046502D01*
X0117621Y0046507D01*
X0117680Y0046516D01*
X0117739Y0046529D01*
X0117798Y0046545D01*
X0117855Y0046565D01*
X0117910Y0046588D01*
X0117965Y0046615D01*
X0118017Y0046644D01*
X0118068Y0046677D01*
X0118117Y0046713D01*
X0118163Y0046751D01*
X0118207Y0046793D01*
X0118249Y0046837D01*
X0118287Y0046883D01*
X0118323Y0046932D01*
X0118356Y0046983D01*
X0118385Y0047035D01*
X0118412Y0047090D01*
X0118435Y0047145D01*
X0118455Y0047202D01*
X0118471Y0047261D01*
X0118484Y0047320D01*
X0118493Y0047379D01*
X0118498Y0047440D01*
X0118500Y0047500D01*
X0118500Y0054500D02*
X0118498Y0054560D01*
X0118493Y0054621D01*
X0118484Y0054680D01*
X0118471Y0054739D01*
X0118455Y0054798D01*
X0118435Y0054855D01*
X0118412Y0054910D01*
X0118385Y0054965D01*
X0118356Y0055017D01*
X0118323Y0055068D01*
X0118287Y0055117D01*
X0118249Y0055163D01*
X0118207Y0055207D01*
X0118163Y0055249D01*
X0118117Y0055287D01*
X0118068Y0055323D01*
X0118017Y0055356D01*
X0117965Y0055385D01*
X0117910Y0055412D01*
X0117855Y0055435D01*
X0117798Y0055455D01*
X0117739Y0055471D01*
X0117680Y0055484D01*
X0117621Y0055493D01*
X0117560Y0055498D01*
X0117500Y0055500D01*
X0116000Y0055500D01*
X0115500Y0055000D01*
X0096500Y0055000D01*
X0096000Y0055500D01*
X0094500Y0055500D01*
X0094440Y0055498D01*
X0094379Y0055493D01*
X0094320Y0055484D01*
X0094261Y0055471D01*
X0094202Y0055455D01*
X0094145Y0055435D01*
X0094090Y0055412D01*
X0094035Y0055385D01*
X0093983Y0055356D01*
X0093932Y0055323D01*
X0093883Y0055287D01*
X0093837Y0055249D01*
X0093793Y0055207D01*
X0093751Y0055163D01*
X0093713Y0055117D01*
X0093677Y0055068D01*
X0093644Y0055017D01*
X0093615Y0054965D01*
X0093588Y0054910D01*
X0093565Y0054855D01*
X0093545Y0054798D01*
X0093529Y0054739D01*
X0093516Y0054680D01*
X0093507Y0054621D01*
X0093502Y0054560D01*
X0093500Y0054500D01*
X0093500Y0047500D02*
X0093502Y0047440D01*
X0093507Y0047379D01*
X0093516Y0047320D01*
X0093529Y0047261D01*
X0093545Y0047202D01*
X0093565Y0047145D01*
X0093588Y0047090D01*
X0093615Y0047035D01*
X0093644Y0046983D01*
X0093677Y0046932D01*
X0093713Y0046883D01*
X0093751Y0046837D01*
X0093793Y0046793D01*
X0093837Y0046751D01*
X0093883Y0046713D01*
X0093932Y0046677D01*
X0093983Y0046644D01*
X0094035Y0046615D01*
X0094090Y0046588D01*
X0094145Y0046565D01*
X0094202Y0046545D01*
X0094261Y0046529D01*
X0094320Y0046516D01*
X0094379Y0046507D01*
X0094440Y0046502D01*
X0094500Y0046500D01*
X0109500Y0037500D02*
X0111000Y0037500D01*
X0112500Y0037500D01*
X0111000Y0037500D02*
X0111000Y0036000D01*
X0111000Y0037500D02*
X0111000Y0039000D01*
X0095000Y0031000D02*
X0095003Y0031270D01*
X0095013Y0031540D01*
X0095030Y0031809D01*
X0095053Y0032078D01*
X0095083Y0032347D01*
X0095119Y0032614D01*
X0095162Y0032881D01*
X0095211Y0033146D01*
X0095267Y0033410D01*
X0095330Y0033673D01*
X0095398Y0033934D01*
X0095474Y0034193D01*
X0095555Y0034450D01*
X0095643Y0034706D01*
X0095737Y0034959D01*
X0095837Y0035210D01*
X0095944Y0035458D01*
X0096056Y0035703D01*
X0096175Y0035946D01*
X0096299Y0036185D01*
X0096429Y0036422D01*
X0096565Y0036655D01*
X0096707Y0036885D01*
X0096854Y0037111D01*
X0097007Y0037334D01*
X0097165Y0037553D01*
X0097328Y0037768D01*
X0097497Y0037978D01*
X0097671Y0038185D01*
X0097850Y0038387D01*
X0098033Y0038585D01*
X0098222Y0038778D01*
X0098415Y0038967D01*
X0098613Y0039150D01*
X0098815Y0039329D01*
X0099022Y0039503D01*
X0099232Y0039672D01*
X0099447Y0039835D01*
X0099666Y0039993D01*
X0099889Y0040146D01*
X0100115Y0040293D01*
X0100345Y0040435D01*
X0100578Y0040571D01*
X0100815Y0040701D01*
X0101054Y0040825D01*
X0101297Y0040944D01*
X0101542Y0041056D01*
X0101790Y0041163D01*
X0102041Y0041263D01*
X0102294Y0041357D01*
X0102550Y0041445D01*
X0102807Y0041526D01*
X0103066Y0041602D01*
X0103327Y0041670D01*
X0103590Y0041733D01*
X0103854Y0041789D01*
X0104119Y0041838D01*
X0104386Y0041881D01*
X0104653Y0041917D01*
X0104922Y0041947D01*
X0105191Y0041970D01*
X0105460Y0041987D01*
X0105730Y0041997D01*
X0106000Y0042000D01*
X0106270Y0041997D01*
X0106540Y0041987D01*
X0106809Y0041970D01*
X0107078Y0041947D01*
X0107347Y0041917D01*
X0107614Y0041881D01*
X0107881Y0041838D01*
X0108146Y0041789D01*
X0108410Y0041733D01*
X0108673Y0041670D01*
X0108934Y0041602D01*
X0109193Y0041526D01*
X0109450Y0041445D01*
X0109706Y0041357D01*
X0109959Y0041263D01*
X0110210Y0041163D01*
X0110458Y0041056D01*
X0110703Y0040944D01*
X0110946Y0040825D01*
X0111185Y0040701D01*
X0111422Y0040571D01*
X0111655Y0040435D01*
X0111885Y0040293D01*
X0112111Y0040146D01*
X0112334Y0039993D01*
X0112553Y0039835D01*
X0112768Y0039672D01*
X0112978Y0039503D01*
X0113185Y0039329D01*
X0113387Y0039150D01*
X0113585Y0038967D01*
X0113778Y0038778D01*
X0113967Y0038585D01*
X0114150Y0038387D01*
X0114329Y0038185D01*
X0114503Y0037978D01*
X0114672Y0037768D01*
X0114835Y0037553D01*
X0114993Y0037334D01*
X0115146Y0037111D01*
X0115293Y0036885D01*
X0115435Y0036655D01*
X0115571Y0036422D01*
X0115701Y0036185D01*
X0115825Y0035946D01*
X0115944Y0035703D01*
X0116056Y0035458D01*
X0116163Y0035210D01*
X0116263Y0034959D01*
X0116357Y0034706D01*
X0116445Y0034450D01*
X0116526Y0034193D01*
X0116602Y0033934D01*
X0116670Y0033673D01*
X0116733Y0033410D01*
X0116789Y0033146D01*
X0116838Y0032881D01*
X0116881Y0032614D01*
X0116917Y0032347D01*
X0116947Y0032078D01*
X0116970Y0031809D01*
X0116987Y0031540D01*
X0116997Y0031270D01*
X0117000Y0031000D01*
X0116997Y0030730D01*
X0116987Y0030460D01*
X0116970Y0030191D01*
X0116947Y0029922D01*
X0116917Y0029653D01*
X0116881Y0029386D01*
X0116838Y0029119D01*
X0116789Y0028854D01*
X0116733Y0028590D01*
X0116670Y0028327D01*
X0116602Y0028066D01*
X0116526Y0027807D01*
X0116445Y0027550D01*
X0116357Y0027294D01*
X0116263Y0027041D01*
X0116163Y0026790D01*
X0116056Y0026542D01*
X0115944Y0026297D01*
X0115825Y0026054D01*
X0115701Y0025815D01*
X0115571Y0025578D01*
X0115435Y0025345D01*
X0115293Y0025115D01*
X0115146Y0024889D01*
X0114993Y0024666D01*
X0114835Y0024447D01*
X0114672Y0024232D01*
X0114503Y0024022D01*
X0114329Y0023815D01*
X0114150Y0023613D01*
X0113967Y0023415D01*
X0113778Y0023222D01*
X0113585Y0023033D01*
X0113387Y0022850D01*
X0113185Y0022671D01*
X0112978Y0022497D01*
X0112768Y0022328D01*
X0112553Y0022165D01*
X0112334Y0022007D01*
X0112111Y0021854D01*
X0111885Y0021707D01*
X0111655Y0021565D01*
X0111422Y0021429D01*
X0111185Y0021299D01*
X0110946Y0021175D01*
X0110703Y0021056D01*
X0110458Y0020944D01*
X0110210Y0020837D01*
X0109959Y0020737D01*
X0109706Y0020643D01*
X0109450Y0020555D01*
X0109193Y0020474D01*
X0108934Y0020398D01*
X0108673Y0020330D01*
X0108410Y0020267D01*
X0108146Y0020211D01*
X0107881Y0020162D01*
X0107614Y0020119D01*
X0107347Y0020083D01*
X0107078Y0020053D01*
X0106809Y0020030D01*
X0106540Y0020013D01*
X0106270Y0020003D01*
X0106000Y0020000D01*
X0105730Y0020003D01*
X0105460Y0020013D01*
X0105191Y0020030D01*
X0104922Y0020053D01*
X0104653Y0020083D01*
X0104386Y0020119D01*
X0104119Y0020162D01*
X0103854Y0020211D01*
X0103590Y0020267D01*
X0103327Y0020330D01*
X0103066Y0020398D01*
X0102807Y0020474D01*
X0102550Y0020555D01*
X0102294Y0020643D01*
X0102041Y0020737D01*
X0101790Y0020837D01*
X0101542Y0020944D01*
X0101297Y0021056D01*
X0101054Y0021175D01*
X0100815Y0021299D01*
X0100578Y0021429D01*
X0100345Y0021565D01*
X0100115Y0021707D01*
X0099889Y0021854D01*
X0099666Y0022007D01*
X0099447Y0022165D01*
X0099232Y0022328D01*
X0099022Y0022497D01*
X0098815Y0022671D01*
X0098613Y0022850D01*
X0098415Y0023033D01*
X0098222Y0023222D01*
X0098033Y0023415D01*
X0097850Y0023613D01*
X0097671Y0023815D01*
X0097497Y0024022D01*
X0097328Y0024232D01*
X0097165Y0024447D01*
X0097007Y0024666D01*
X0096854Y0024889D01*
X0096707Y0025115D01*
X0096565Y0025345D01*
X0096429Y0025578D01*
X0096299Y0025815D01*
X0096175Y0026054D01*
X0096056Y0026297D01*
X0095944Y0026542D01*
X0095837Y0026790D01*
X0095737Y0027041D01*
X0095643Y0027294D01*
X0095555Y0027550D01*
X0095474Y0027807D01*
X0095398Y0028066D01*
X0095330Y0028327D01*
X0095267Y0028590D01*
X0095211Y0028854D01*
X0095162Y0029119D01*
X0095119Y0029386D01*
X0095083Y0029653D01*
X0095053Y0029922D01*
X0095030Y0030191D01*
X0095013Y0030460D01*
X0095003Y0030730D01*
X0095000Y0031000D01*
X0150500Y0051000D02*
X0150500Y0100000D01*
X0154000Y0100000D01*
X0154000Y0106000D01*
X0150500Y0106000D01*
X0150500Y0113500D01*
X0191500Y0113500D01*
X0191500Y0106000D01*
X0188000Y0106000D01*
X0188000Y0100000D01*
X0191500Y0100000D01*
X0191500Y0051000D01*
X0150500Y0051000D01*
X0140500Y0074500D02*
X0140500Y0076000D01*
X0140000Y0076500D01*
X0140000Y0095500D01*
X0140500Y0096000D01*
X0140500Y0097500D01*
X0140498Y0097560D01*
X0140493Y0097621D01*
X0140484Y0097680D01*
X0140471Y0097739D01*
X0140455Y0097798D01*
X0140435Y0097855D01*
X0140412Y0097910D01*
X0140385Y0097965D01*
X0140356Y0098017D01*
X0140323Y0098068D01*
X0140287Y0098117D01*
X0140249Y0098163D01*
X0140207Y0098207D01*
X0140163Y0098249D01*
X0140117Y0098287D01*
X0140068Y0098323D01*
X0140017Y0098356D01*
X0139965Y0098385D01*
X0139910Y0098412D01*
X0139855Y0098435D01*
X0139798Y0098455D01*
X0139739Y0098471D01*
X0139680Y0098484D01*
X0139621Y0098493D01*
X0139560Y0098498D01*
X0139500Y0098500D01*
X0132500Y0098500D02*
X0132440Y0098498D01*
X0132379Y0098493D01*
X0132320Y0098484D01*
X0132261Y0098471D01*
X0132202Y0098455D01*
X0132145Y0098435D01*
X0132090Y0098412D01*
X0132035Y0098385D01*
X0131983Y0098356D01*
X0131932Y0098323D01*
X0131883Y0098287D01*
X0131837Y0098249D01*
X0131793Y0098207D01*
X0131751Y0098163D01*
X0131713Y0098117D01*
X0131677Y0098068D01*
X0131644Y0098017D01*
X0131615Y0097965D01*
X0131588Y0097910D01*
X0131565Y0097855D01*
X0131545Y0097798D01*
X0131529Y0097739D01*
X0131516Y0097680D01*
X0131507Y0097621D01*
X0131502Y0097560D01*
X0131500Y0097500D01*
X0131500Y0096000D01*
X0132000Y0095500D01*
X0132000Y0076500D01*
X0131500Y0076000D01*
X0131500Y0074500D01*
X0131502Y0074440D01*
X0131507Y0074379D01*
X0131516Y0074320D01*
X0131529Y0074261D01*
X0131545Y0074202D01*
X0131565Y0074145D01*
X0131588Y0074090D01*
X0131615Y0074035D01*
X0131644Y0073983D01*
X0131677Y0073932D01*
X0131713Y0073883D01*
X0131751Y0073837D01*
X0131793Y0073793D01*
X0131837Y0073751D01*
X0131883Y0073713D01*
X0131932Y0073677D01*
X0131983Y0073644D01*
X0132035Y0073615D01*
X0132090Y0073588D01*
X0132145Y0073565D01*
X0132202Y0073545D01*
X0132261Y0073529D01*
X0132320Y0073516D01*
X0132379Y0073507D01*
X0132440Y0073502D01*
X0132500Y0073500D01*
X0139500Y0073500D02*
X0139560Y0073502D01*
X0139621Y0073507D01*
X0139680Y0073516D01*
X0139739Y0073529D01*
X0139798Y0073545D01*
X0139855Y0073565D01*
X0139910Y0073588D01*
X0139965Y0073615D01*
X0140017Y0073644D01*
X0140068Y0073677D01*
X0140117Y0073713D01*
X0140163Y0073751D01*
X0140207Y0073793D01*
X0140249Y0073837D01*
X0140287Y0073883D01*
X0140323Y0073932D01*
X0140356Y0073983D01*
X0140385Y0074035D01*
X0140412Y0074090D01*
X0140435Y0074145D01*
X0140455Y0074202D01*
X0140471Y0074261D01*
X0140484Y0074320D01*
X0140493Y0074379D01*
X0140498Y0074440D01*
X0140500Y0074500D01*
X0125500Y0079500D02*
X0125500Y0081000D01*
X0125000Y0081500D01*
X0125000Y0100500D01*
X0125500Y0101000D01*
X0125500Y0102500D01*
X0125498Y0102560D01*
X0125493Y0102621D01*
X0125484Y0102680D01*
X0125471Y0102739D01*
X0125455Y0102798D01*
X0125435Y0102855D01*
X0125412Y0102910D01*
X0125385Y0102965D01*
X0125356Y0103017D01*
X0125323Y0103068D01*
X0125287Y0103117D01*
X0125249Y0103163D01*
X0125207Y0103207D01*
X0125163Y0103249D01*
X0125117Y0103287D01*
X0125068Y0103323D01*
X0125017Y0103356D01*
X0124965Y0103385D01*
X0124910Y0103412D01*
X0124855Y0103435D01*
X0124798Y0103455D01*
X0124739Y0103471D01*
X0124680Y0103484D01*
X0124621Y0103493D01*
X0124560Y0103498D01*
X0124500Y0103500D01*
X0117500Y0103500D02*
X0117440Y0103498D01*
X0117379Y0103493D01*
X0117320Y0103484D01*
X0117261Y0103471D01*
X0117202Y0103455D01*
X0117145Y0103435D01*
X0117090Y0103412D01*
X0117035Y0103385D01*
X0116983Y0103356D01*
X0116932Y0103323D01*
X0116883Y0103287D01*
X0116837Y0103249D01*
X0116793Y0103207D01*
X0116751Y0103163D01*
X0116713Y0103117D01*
X0116677Y0103068D01*
X0116644Y0103017D01*
X0116615Y0102965D01*
X0116588Y0102910D01*
X0116565Y0102855D01*
X0116545Y0102798D01*
X0116529Y0102739D01*
X0116516Y0102680D01*
X0116507Y0102621D01*
X0116502Y0102560D01*
X0116500Y0102500D01*
X0116500Y0101000D01*
X0117000Y0100500D01*
X0117000Y0081500D01*
X0116500Y0081000D01*
X0116500Y0079500D01*
X0116502Y0079440D01*
X0116507Y0079379D01*
X0116516Y0079320D01*
X0116529Y0079261D01*
X0116545Y0079202D01*
X0116565Y0079145D01*
X0116588Y0079090D01*
X0116615Y0079035D01*
X0116644Y0078983D01*
X0116677Y0078932D01*
X0116713Y0078883D01*
X0116751Y0078837D01*
X0116793Y0078793D01*
X0116837Y0078751D01*
X0116883Y0078713D01*
X0116932Y0078677D01*
X0116983Y0078644D01*
X0117035Y0078615D01*
X0117090Y0078588D01*
X0117145Y0078565D01*
X0117202Y0078545D01*
X0117261Y0078529D01*
X0117320Y0078516D01*
X0117379Y0078507D01*
X0117440Y0078502D01*
X0117500Y0078500D01*
X0124500Y0078500D02*
X0124560Y0078502D01*
X0124621Y0078507D01*
X0124680Y0078516D01*
X0124739Y0078529D01*
X0124798Y0078545D01*
X0124855Y0078565D01*
X0124910Y0078588D01*
X0124965Y0078615D01*
X0125017Y0078644D01*
X0125068Y0078677D01*
X0125117Y0078713D01*
X0125163Y0078751D01*
X0125207Y0078793D01*
X0125249Y0078837D01*
X0125287Y0078883D01*
X0125323Y0078932D01*
X0125356Y0078983D01*
X0125385Y0079035D01*
X0125412Y0079090D01*
X0125435Y0079145D01*
X0125455Y0079202D01*
X0125471Y0079261D01*
X0125484Y0079320D01*
X0125493Y0079379D01*
X0125498Y0079440D01*
X0125500Y0079500D01*
X0159500Y0116500D02*
X0161000Y0116500D01*
X0161500Y0117000D01*
X0180500Y0117000D01*
X0181000Y0116500D01*
X0182500Y0116500D01*
X0182560Y0116502D01*
X0182621Y0116507D01*
X0182680Y0116516D01*
X0182739Y0116529D01*
X0182798Y0116545D01*
X0182855Y0116565D01*
X0182910Y0116588D01*
X0182965Y0116615D01*
X0183017Y0116644D01*
X0183068Y0116677D01*
X0183117Y0116713D01*
X0183163Y0116751D01*
X0183207Y0116793D01*
X0183249Y0116837D01*
X0183287Y0116883D01*
X0183323Y0116932D01*
X0183356Y0116983D01*
X0183385Y0117035D01*
X0183412Y0117090D01*
X0183435Y0117145D01*
X0183455Y0117202D01*
X0183471Y0117261D01*
X0183484Y0117320D01*
X0183493Y0117379D01*
X0183498Y0117440D01*
X0183500Y0117500D01*
X0183500Y0124500D02*
X0183498Y0124560D01*
X0183493Y0124621D01*
X0183484Y0124680D01*
X0183471Y0124739D01*
X0183455Y0124798D01*
X0183435Y0124855D01*
X0183412Y0124910D01*
X0183385Y0124965D01*
X0183356Y0125017D01*
X0183323Y0125068D01*
X0183287Y0125117D01*
X0183249Y0125163D01*
X0183207Y0125207D01*
X0183163Y0125249D01*
X0183117Y0125287D01*
X0183068Y0125323D01*
X0183017Y0125356D01*
X0182965Y0125385D01*
X0182910Y0125412D01*
X0182855Y0125435D01*
X0182798Y0125455D01*
X0182739Y0125471D01*
X0182680Y0125484D01*
X0182621Y0125493D01*
X0182560Y0125498D01*
X0182500Y0125500D01*
X0181000Y0125500D01*
X0180500Y0125000D01*
X0161500Y0125000D01*
X0161000Y0125500D01*
X0159500Y0125500D01*
X0159440Y0125498D01*
X0159379Y0125493D01*
X0159320Y0125484D01*
X0159261Y0125471D01*
X0159202Y0125455D01*
X0159145Y0125435D01*
X0159090Y0125412D01*
X0159035Y0125385D01*
X0158983Y0125356D01*
X0158932Y0125323D01*
X0158883Y0125287D01*
X0158837Y0125249D01*
X0158793Y0125207D01*
X0158751Y0125163D01*
X0158713Y0125117D01*
X0158677Y0125068D01*
X0158644Y0125017D01*
X0158615Y0124965D01*
X0158588Y0124910D01*
X0158565Y0124855D01*
X0158545Y0124798D01*
X0158529Y0124739D01*
X0158516Y0124680D01*
X0158507Y0124621D01*
X0158502Y0124560D01*
X0158500Y0124500D01*
X0158500Y0117500D02*
X0158502Y0117440D01*
X0158507Y0117379D01*
X0158516Y0117320D01*
X0158529Y0117261D01*
X0158545Y0117202D01*
X0158565Y0117145D01*
X0158588Y0117090D01*
X0158615Y0117035D01*
X0158644Y0116983D01*
X0158677Y0116932D01*
X0158713Y0116883D01*
X0158751Y0116837D01*
X0158793Y0116793D01*
X0158837Y0116751D01*
X0158883Y0116713D01*
X0158932Y0116677D01*
X0158983Y0116644D01*
X0159035Y0116615D01*
X0159090Y0116588D01*
X0159145Y0116565D01*
X0159202Y0116545D01*
X0159261Y0116529D01*
X0159320Y0116516D01*
X0159379Y0116507D01*
X0159440Y0116502D01*
X0159500Y0116500D01*
X0163000Y0132000D02*
X0179000Y0132000D01*
X0179060Y0132002D01*
X0179121Y0132007D01*
X0179180Y0132016D01*
X0179239Y0132029D01*
X0179298Y0132045D01*
X0179355Y0132065D01*
X0179410Y0132088D01*
X0179465Y0132115D01*
X0179517Y0132144D01*
X0179568Y0132177D01*
X0179617Y0132213D01*
X0179663Y0132251D01*
X0179707Y0132293D01*
X0179749Y0132337D01*
X0179787Y0132383D01*
X0179823Y0132432D01*
X0179856Y0132483D01*
X0179885Y0132535D01*
X0179912Y0132590D01*
X0179935Y0132645D01*
X0179955Y0132702D01*
X0179971Y0132761D01*
X0179984Y0132820D01*
X0179993Y0132879D01*
X0179998Y0132940D01*
X0180000Y0133000D01*
X0180000Y0139000D01*
X0179998Y0139060D01*
X0179993Y0139121D01*
X0179984Y0139180D01*
X0179971Y0139239D01*
X0179955Y0139298D01*
X0179935Y0139355D01*
X0179912Y0139410D01*
X0179885Y0139465D01*
X0179856Y0139517D01*
X0179823Y0139568D01*
X0179787Y0139617D01*
X0179749Y0139663D01*
X0179707Y0139707D01*
X0179663Y0139749D01*
X0179617Y0139787D01*
X0179568Y0139823D01*
X0179517Y0139856D01*
X0179465Y0139885D01*
X0179410Y0139912D01*
X0179355Y0139935D01*
X0179298Y0139955D01*
X0179239Y0139971D01*
X0179180Y0139984D01*
X0179121Y0139993D01*
X0179060Y0139998D01*
X0179000Y0140000D01*
X0163000Y0140000D01*
X0162940Y0139998D01*
X0162879Y0139993D01*
X0162820Y0139984D01*
X0162761Y0139971D01*
X0162702Y0139955D01*
X0162645Y0139935D01*
X0162590Y0139912D01*
X0162535Y0139885D01*
X0162483Y0139856D01*
X0162432Y0139823D01*
X0162383Y0139787D01*
X0162337Y0139749D01*
X0162293Y0139707D01*
X0162251Y0139663D01*
X0162213Y0139617D01*
X0162177Y0139568D01*
X0162144Y0139517D01*
X0162115Y0139465D01*
X0162088Y0139410D01*
X0162065Y0139355D01*
X0162045Y0139298D01*
X0162029Y0139239D01*
X0162016Y0139180D01*
X0162007Y0139121D01*
X0162002Y0139060D01*
X0162000Y0139000D01*
X0162000Y0133000D01*
X0162002Y0132940D01*
X0162007Y0132879D01*
X0162016Y0132820D01*
X0162029Y0132761D01*
X0162045Y0132702D01*
X0162065Y0132645D01*
X0162088Y0132590D01*
X0162115Y0132535D01*
X0162144Y0132483D01*
X0162177Y0132432D01*
X0162213Y0132383D01*
X0162251Y0132337D01*
X0162293Y0132293D01*
X0162337Y0132251D01*
X0162383Y0132213D01*
X0162432Y0132177D01*
X0162483Y0132144D01*
X0162535Y0132115D01*
X0162590Y0132088D01*
X0162645Y0132065D01*
X0162702Y0132045D01*
X0162761Y0132029D01*
X0162820Y0132016D01*
X0162879Y0132007D01*
X0162940Y0132002D01*
X0163000Y0132000D01*
X0167000Y0133500D02*
X0171000Y0136000D01*
X0171000Y0138500D01*
X0171000Y0136000D02*
X0171000Y0133500D01*
X0171000Y0136000D02*
X0165000Y0136000D01*
X0167000Y0133500D02*
X0167000Y0138500D01*
X0171000Y0136000D01*
X0173500Y0136000D01*
X0209000Y0101500D02*
X0213000Y0101500D01*
X0216500Y0098000D01*
X0216500Y0094000D01*
X0213000Y0090500D01*
X0209000Y0090500D01*
X0205500Y0094000D01*
X0205500Y0098000D01*
X0209000Y0101500D01*
X0209000Y0081500D02*
X0213000Y0081500D01*
X0216500Y0078000D01*
X0216500Y0074000D01*
X0213000Y0070500D01*
X0209000Y0070500D01*
X0205500Y0074000D01*
X0205500Y0078000D01*
X0209000Y0081500D01*
X0040500Y0065000D02*
X0040500Y0057000D01*
X0040498Y0056940D01*
X0040493Y0056879D01*
X0040484Y0056820D01*
X0040471Y0056761D01*
X0040455Y0056702D01*
X0040435Y0056645D01*
X0040412Y0056590D01*
X0040385Y0056535D01*
X0040356Y0056483D01*
X0040323Y0056432D01*
X0040287Y0056383D01*
X0040249Y0056337D01*
X0040207Y0056293D01*
X0040163Y0056251D01*
X0040117Y0056213D01*
X0040068Y0056177D01*
X0040017Y0056144D01*
X0039965Y0056115D01*
X0039910Y0056088D01*
X0039855Y0056065D01*
X0039798Y0056045D01*
X0039739Y0056029D01*
X0039680Y0056016D01*
X0039621Y0056007D01*
X0039560Y0056002D01*
X0039500Y0056000D01*
X0022500Y0056000D01*
X0022440Y0056002D01*
X0022379Y0056007D01*
X0022320Y0056016D01*
X0022261Y0056029D01*
X0022202Y0056045D01*
X0022145Y0056065D01*
X0022090Y0056088D01*
X0022035Y0056115D01*
X0021983Y0056144D01*
X0021932Y0056177D01*
X0021883Y0056213D01*
X0021837Y0056251D01*
X0021793Y0056293D01*
X0021751Y0056337D01*
X0021713Y0056383D01*
X0021677Y0056432D01*
X0021644Y0056483D01*
X0021615Y0056535D01*
X0021588Y0056590D01*
X0021565Y0056645D01*
X0021545Y0056702D01*
X0021529Y0056761D01*
X0021516Y0056820D01*
X0021507Y0056879D01*
X0021502Y0056940D01*
X0021500Y0057000D01*
X0021500Y0065000D01*
X0021502Y0065060D01*
X0021507Y0065121D01*
X0021516Y0065180D01*
X0021529Y0065239D01*
X0021545Y0065298D01*
X0021565Y0065355D01*
X0021588Y0065410D01*
X0021615Y0065465D01*
X0021644Y0065517D01*
X0021677Y0065568D01*
X0021713Y0065617D01*
X0021751Y0065663D01*
X0021793Y0065707D01*
X0021837Y0065749D01*
X0021883Y0065787D01*
X0021932Y0065823D01*
X0021983Y0065856D01*
X0022035Y0065885D01*
X0022090Y0065912D01*
X0022145Y0065935D01*
X0022202Y0065955D01*
X0022261Y0065971D01*
X0022320Y0065984D01*
X0022379Y0065993D01*
X0022440Y0065998D01*
X0022500Y0066000D01*
X0039500Y0066000D01*
X0039560Y0065998D01*
X0039621Y0065993D01*
X0039680Y0065984D01*
X0039739Y0065971D01*
X0039798Y0065955D01*
X0039855Y0065935D01*
X0039910Y0065912D01*
X0039965Y0065885D01*
X0040017Y0065856D01*
X0040068Y0065823D01*
X0040117Y0065787D01*
X0040163Y0065749D01*
X0040207Y0065707D01*
X0040249Y0065663D01*
X0040287Y0065617D01*
X0040323Y0065568D01*
X0040356Y0065517D01*
X0040385Y0065465D01*
X0040412Y0065410D01*
X0040435Y0065355D01*
X0040455Y0065298D01*
X0040471Y0065239D01*
X0040484Y0065180D01*
X0040493Y0065121D01*
X0040498Y0065060D01*
X0040500Y0065000D01*
X0032500Y0061000D02*
X0032000Y0061000D01*
X0030000Y0061000D02*
X0029500Y0061000D01*
X0018000Y0070500D02*
X0014000Y0070500D01*
X0010500Y0074000D01*
X0010500Y0078000D01*
X0014000Y0081500D01*
X0018000Y0081500D01*
X0021500Y0078000D01*
X0021500Y0074000D01*
X0018000Y0070500D01*
X0018000Y0090500D02*
X0014000Y0090500D01*
X0010500Y0094000D01*
X0010500Y0098000D01*
X0014000Y0101500D01*
X0018000Y0101500D01*
X0021500Y0098000D01*
X0021500Y0094000D01*
X0018000Y0090500D01*
D12*
X0030000Y0064000D02*
X0030000Y0061000D01*
X0030000Y0058000D01*
X0032000Y0058000D02*
X0032000Y0061000D01*
X0032000Y0064000D01*
D13*
X0031426Y0059771D02*
X0030837Y0059771D01*
X0030837Y0059772D02*
X0030791Y0059770D01*
X0030745Y0059765D01*
X0030699Y0059756D01*
X0030655Y0059743D01*
X0030611Y0059727D01*
X0030569Y0059708D01*
X0030529Y0059685D01*
X0030490Y0059659D01*
X0030454Y0059631D01*
X0030420Y0059599D01*
X0030388Y0059565D01*
X0030360Y0059529D01*
X0030334Y0059490D01*
X0030311Y0059450D01*
X0030292Y0059408D01*
X0030276Y0059364D01*
X0030263Y0059320D01*
X0030254Y0059274D01*
X0030249Y0059228D01*
X0030247Y0059182D01*
X0030247Y0057708D01*
X0030248Y0057708D02*
X0030250Y0057662D01*
X0030255Y0057616D01*
X0030264Y0057571D01*
X0030277Y0057526D01*
X0030293Y0057483D01*
X0030312Y0057441D01*
X0030335Y0057400D01*
X0030360Y0057362D01*
X0030389Y0057325D01*
X0030421Y0057292D01*
X0030454Y0057260D01*
X0030491Y0057231D01*
X0030529Y0057206D01*
X0030570Y0057183D01*
X0030612Y0057164D01*
X0030655Y0057148D01*
X0030700Y0057135D01*
X0030745Y0057126D01*
X0030791Y0057121D01*
X0030837Y0057119D01*
X0031426Y0057119D01*
X0032471Y0057119D02*
X0033944Y0057119D01*
X0033208Y0057119D02*
X0033208Y0059771D01*
X0032471Y0059182D01*
X0008881Y0070208D02*
X0008881Y0071092D01*
X0007408Y0071092D01*
X0007408Y0070650D01*
X0006818Y0069618D02*
X0006772Y0069620D01*
X0006726Y0069625D01*
X0006680Y0069634D01*
X0006636Y0069647D01*
X0006592Y0069663D01*
X0006550Y0069682D01*
X0006510Y0069705D01*
X0006471Y0069731D01*
X0006435Y0069759D01*
X0006401Y0069791D01*
X0006369Y0069825D01*
X0006341Y0069861D01*
X0006315Y0069900D01*
X0006292Y0069940D01*
X0006273Y0069982D01*
X0006257Y0070026D01*
X0006244Y0070070D01*
X0006235Y0070116D01*
X0006230Y0070162D01*
X0006228Y0070208D01*
X0006229Y0070208D02*
X0006229Y0071092D01*
X0006229Y0072453D02*
X0008881Y0073927D01*
X0006229Y0073927D01*
X0006229Y0075288D02*
X0006229Y0076025D01*
X0006231Y0076078D01*
X0006237Y0076130D01*
X0006246Y0076182D01*
X0006259Y0076233D01*
X0006275Y0076283D01*
X0006296Y0076331D01*
X0006319Y0076378D01*
X0006346Y0076423D01*
X0006376Y0076467D01*
X0006409Y0076508D01*
X0006445Y0076546D01*
X0006483Y0076582D01*
X0006524Y0076615D01*
X0006568Y0076645D01*
X0006613Y0076672D01*
X0006660Y0076695D01*
X0006708Y0076716D01*
X0006758Y0076732D01*
X0006809Y0076745D01*
X0006861Y0076754D01*
X0006913Y0076760D01*
X0006966Y0076762D01*
X0008145Y0076762D01*
X0008198Y0076760D01*
X0008250Y0076754D01*
X0008302Y0076745D01*
X0008353Y0076732D01*
X0008403Y0076716D01*
X0008451Y0076695D01*
X0008498Y0076672D01*
X0008543Y0076645D01*
X0008587Y0076615D01*
X0008628Y0076582D01*
X0008666Y0076546D01*
X0008702Y0076508D01*
X0008735Y0076467D01*
X0008765Y0076423D01*
X0008792Y0076378D01*
X0008815Y0076331D01*
X0008836Y0076283D01*
X0008852Y0076233D01*
X0008865Y0076182D01*
X0008874Y0076130D01*
X0008880Y0076078D01*
X0008882Y0076025D01*
X0008881Y0076025D02*
X0008881Y0075288D01*
X0006229Y0075288D01*
X0006229Y0077944D02*
X0006229Y0078534D01*
X0006229Y0078239D02*
X0008881Y0078239D01*
X0008881Y0077944D02*
X0008881Y0078534D01*
X0008881Y0079717D02*
X0006229Y0079717D01*
X0008881Y0081191D01*
X0006229Y0081191D01*
X0006229Y0072453D02*
X0008881Y0072453D01*
X0008881Y0070208D02*
X0008879Y0070162D01*
X0008874Y0070116D01*
X0008865Y0070071D01*
X0008852Y0070026D01*
X0008836Y0069983D01*
X0008817Y0069941D01*
X0008794Y0069900D01*
X0008769Y0069862D01*
X0008740Y0069825D01*
X0008708Y0069792D01*
X0008675Y0069760D01*
X0008638Y0069731D01*
X0008600Y0069706D01*
X0008559Y0069683D01*
X0008517Y0069664D01*
X0008474Y0069648D01*
X0008429Y0069635D01*
X0008384Y0069626D01*
X0008338Y0069621D01*
X0008292Y0069619D01*
X0006818Y0069619D01*
X0006229Y0090839D02*
X0008881Y0091723D01*
X0006229Y0092607D01*
X0006818Y0093635D02*
X0008292Y0093635D01*
X0008292Y0093636D02*
X0008338Y0093638D01*
X0008384Y0093643D01*
X0008429Y0093652D01*
X0008474Y0093665D01*
X0008517Y0093681D01*
X0008559Y0093700D01*
X0008600Y0093723D01*
X0008638Y0093748D01*
X0008675Y0093777D01*
X0008708Y0093809D01*
X0008740Y0093842D01*
X0008769Y0093879D01*
X0008794Y0093917D01*
X0008817Y0093958D01*
X0008836Y0094000D01*
X0008852Y0094043D01*
X0008865Y0094088D01*
X0008874Y0094133D01*
X0008879Y0094179D01*
X0008881Y0094225D01*
X0008881Y0094814D01*
X0008292Y0095850D02*
X0006818Y0095850D01*
X0006818Y0095849D02*
X0006772Y0095851D01*
X0006726Y0095856D01*
X0006680Y0095865D01*
X0006636Y0095878D01*
X0006592Y0095894D01*
X0006550Y0095913D01*
X0006510Y0095936D01*
X0006471Y0095962D01*
X0006435Y0095990D01*
X0006401Y0096022D01*
X0006369Y0096056D01*
X0006341Y0096092D01*
X0006315Y0096131D01*
X0006292Y0096171D01*
X0006273Y0096213D01*
X0006257Y0096257D01*
X0006244Y0096301D01*
X0006235Y0096347D01*
X0006230Y0096393D01*
X0006228Y0096439D01*
X0006229Y0096439D02*
X0006229Y0097029D01*
X0006229Y0097984D02*
X0006229Y0098573D01*
X0006229Y0098278D02*
X0008881Y0098278D01*
X0008881Y0097984D02*
X0008881Y0098573D01*
X0008881Y0099756D02*
X0006229Y0099756D01*
X0008881Y0101230D01*
X0006229Y0101230D01*
X0008881Y0097029D02*
X0008881Y0096439D01*
X0008879Y0096393D01*
X0008874Y0096347D01*
X0008865Y0096302D01*
X0008852Y0096257D01*
X0008836Y0096214D01*
X0008817Y0096172D01*
X0008794Y0096131D01*
X0008769Y0096093D01*
X0008740Y0096056D01*
X0008708Y0096023D01*
X0008675Y0095991D01*
X0008638Y0095962D01*
X0008600Y0095937D01*
X0008559Y0095914D01*
X0008517Y0095895D01*
X0008474Y0095879D01*
X0008429Y0095866D01*
X0008384Y0095857D01*
X0008338Y0095852D01*
X0008292Y0095850D01*
X0006228Y0094225D02*
X0006230Y0094179D01*
X0006235Y0094133D01*
X0006244Y0094087D01*
X0006257Y0094043D01*
X0006273Y0093999D01*
X0006292Y0093957D01*
X0006315Y0093917D01*
X0006341Y0093878D01*
X0006369Y0093842D01*
X0006401Y0093808D01*
X0006435Y0093776D01*
X0006471Y0093748D01*
X0006510Y0093722D01*
X0006550Y0093699D01*
X0006592Y0093680D01*
X0006636Y0093664D01*
X0006680Y0093651D01*
X0006726Y0093642D01*
X0006772Y0093637D01*
X0006818Y0093635D01*
X0006229Y0094225D02*
X0006229Y0094814D01*
X0063430Y0037874D02*
X0064019Y0037874D01*
X0063724Y0037874D02*
X0063724Y0035221D01*
X0063430Y0035221D02*
X0064019Y0035221D01*
X0065105Y0035810D02*
X0065105Y0037284D01*
X0065104Y0037284D02*
X0065106Y0037330D01*
X0065111Y0037376D01*
X0065120Y0037422D01*
X0065133Y0037466D01*
X0065149Y0037510D01*
X0065168Y0037552D01*
X0065191Y0037592D01*
X0065217Y0037631D01*
X0065245Y0037667D01*
X0065277Y0037701D01*
X0065311Y0037733D01*
X0065347Y0037761D01*
X0065386Y0037787D01*
X0065426Y0037810D01*
X0065468Y0037829D01*
X0065512Y0037845D01*
X0065556Y0037858D01*
X0065602Y0037867D01*
X0065648Y0037872D01*
X0065694Y0037874D01*
X0066284Y0037874D01*
X0067328Y0037284D02*
X0068065Y0037874D01*
X0068065Y0035221D01*
X0067328Y0035221D02*
X0068802Y0035221D01*
X0066284Y0035221D02*
X0065694Y0035221D01*
X0065648Y0035223D01*
X0065602Y0035228D01*
X0065557Y0035237D01*
X0065512Y0035250D01*
X0065469Y0035266D01*
X0065427Y0035285D01*
X0065386Y0035308D01*
X0065348Y0035333D01*
X0065311Y0035362D01*
X0065278Y0035394D01*
X0065246Y0035427D01*
X0065217Y0035464D01*
X0065192Y0035502D01*
X0065169Y0035543D01*
X0065150Y0035585D01*
X0065134Y0035628D01*
X0065121Y0035673D01*
X0065112Y0035718D01*
X0065107Y0035764D01*
X0065105Y0035810D01*
X0099927Y0050571D02*
X0099927Y0053224D01*
X0100664Y0053224D01*
X0100717Y0053222D01*
X0100769Y0053216D01*
X0100821Y0053207D01*
X0100872Y0053194D01*
X0100922Y0053178D01*
X0100970Y0053157D01*
X0101017Y0053134D01*
X0101062Y0053107D01*
X0101106Y0053077D01*
X0101147Y0053044D01*
X0101185Y0053008D01*
X0101221Y0052970D01*
X0101254Y0052929D01*
X0101284Y0052885D01*
X0101311Y0052840D01*
X0101334Y0052793D01*
X0101355Y0052745D01*
X0101371Y0052695D01*
X0101384Y0052644D01*
X0101393Y0052592D01*
X0101399Y0052540D01*
X0101401Y0052487D01*
X0101399Y0052434D01*
X0101393Y0052382D01*
X0101384Y0052330D01*
X0101371Y0052279D01*
X0101355Y0052229D01*
X0101334Y0052181D01*
X0101311Y0052134D01*
X0101284Y0052089D01*
X0101254Y0052045D01*
X0101221Y0052004D01*
X0101185Y0051966D01*
X0101147Y0051930D01*
X0101106Y0051897D01*
X0101062Y0051867D01*
X0101017Y0051840D01*
X0100970Y0051817D01*
X0100922Y0051796D01*
X0100872Y0051780D01*
X0100821Y0051767D01*
X0100769Y0051758D01*
X0100717Y0051752D01*
X0100664Y0051750D01*
X0099927Y0051750D01*
X0100811Y0051750D02*
X0101401Y0050571D01*
X0102565Y0050571D02*
X0103302Y0050571D01*
X0103355Y0050573D01*
X0103407Y0050579D01*
X0103459Y0050588D01*
X0103510Y0050601D01*
X0103560Y0050617D01*
X0103608Y0050638D01*
X0103655Y0050661D01*
X0103700Y0050688D01*
X0103744Y0050718D01*
X0103785Y0050751D01*
X0103823Y0050787D01*
X0103859Y0050825D01*
X0103892Y0050866D01*
X0103922Y0050910D01*
X0103949Y0050955D01*
X0103972Y0051002D01*
X0103993Y0051050D01*
X0104009Y0051100D01*
X0104022Y0051151D01*
X0104031Y0051203D01*
X0104037Y0051255D01*
X0104039Y0051308D01*
X0104037Y0051361D01*
X0104031Y0051413D01*
X0104022Y0051465D01*
X0104009Y0051516D01*
X0103993Y0051566D01*
X0103972Y0051614D01*
X0103949Y0051661D01*
X0103922Y0051706D01*
X0103892Y0051750D01*
X0103859Y0051791D01*
X0103823Y0051829D01*
X0103785Y0051865D01*
X0103744Y0051898D01*
X0103700Y0051928D01*
X0103655Y0051955D01*
X0103608Y0051978D01*
X0103560Y0051999D01*
X0103510Y0052015D01*
X0103459Y0052028D01*
X0103407Y0052037D01*
X0103355Y0052043D01*
X0103302Y0052045D01*
X0103449Y0052045D02*
X0102860Y0052045D01*
X0103449Y0052045D02*
X0103496Y0052047D01*
X0103544Y0052053D01*
X0103590Y0052062D01*
X0103636Y0052075D01*
X0103680Y0052092D01*
X0103723Y0052113D01*
X0103764Y0052136D01*
X0103803Y0052163D01*
X0103840Y0052193D01*
X0103875Y0052226D01*
X0103906Y0052262D01*
X0103935Y0052300D01*
X0103960Y0052340D01*
X0103982Y0052382D01*
X0104001Y0052426D01*
X0104016Y0052471D01*
X0104027Y0052517D01*
X0104035Y0052564D01*
X0104039Y0052611D01*
X0104039Y0052659D01*
X0104035Y0052706D01*
X0104027Y0052753D01*
X0104016Y0052799D01*
X0104001Y0052844D01*
X0103982Y0052888D01*
X0103960Y0052930D01*
X0103935Y0052970D01*
X0103906Y0053008D01*
X0103875Y0053044D01*
X0103840Y0053077D01*
X0103803Y0053107D01*
X0103764Y0053134D01*
X0103723Y0053157D01*
X0103680Y0053178D01*
X0103636Y0053195D01*
X0103590Y0053208D01*
X0103544Y0053217D01*
X0103496Y0053223D01*
X0103449Y0053225D01*
X0103449Y0053224D02*
X0102565Y0053224D01*
X0111361Y0032924D02*
X0112834Y0031672D01*
X0112834Y0033145D01*
X0110771Y0031671D02*
X0110717Y0031691D01*
X0110666Y0031713D01*
X0110616Y0031739D01*
X0110568Y0031768D01*
X0110521Y0031801D01*
X0110477Y0031836D01*
X0110436Y0031874D01*
X0110397Y0031915D01*
X0110361Y0031958D01*
X0110328Y0032004D01*
X0110298Y0032052D01*
X0110271Y0032101D01*
X0110247Y0032152D01*
X0110227Y0032205D01*
X0110211Y0032259D01*
X0110198Y0032314D01*
X0110188Y0032370D01*
X0110183Y0032426D01*
X0110181Y0032482D01*
X0110182Y0032482D02*
X0110184Y0032532D01*
X0110189Y0032581D01*
X0110199Y0032630D01*
X0110211Y0032677D01*
X0110228Y0032724D01*
X0110248Y0032770D01*
X0110271Y0032814D01*
X0110297Y0032855D01*
X0110327Y0032895D01*
X0110359Y0032933D01*
X0110394Y0032968D01*
X0110432Y0033000D01*
X0110472Y0033030D01*
X0110514Y0033056D01*
X0110557Y0033079D01*
X0110603Y0033099D01*
X0110650Y0033116D01*
X0110697Y0033128D01*
X0110746Y0033138D01*
X0110795Y0033143D01*
X0110845Y0033145D01*
X0110897Y0033143D01*
X0110949Y0033137D01*
X0111001Y0033128D01*
X0111052Y0033114D01*
X0111101Y0033097D01*
X0111149Y0033077D01*
X0111196Y0033053D01*
X0111240Y0033025D01*
X0111283Y0032994D01*
X0111323Y0032961D01*
X0111361Y0032924D01*
X0110181Y0030627D02*
X0110181Y0030038D01*
X0110183Y0029992D01*
X0110188Y0029946D01*
X0110197Y0029900D01*
X0110210Y0029856D01*
X0110226Y0029812D01*
X0110245Y0029770D01*
X0110268Y0029730D01*
X0110294Y0029691D01*
X0110322Y0029655D01*
X0110354Y0029621D01*
X0110388Y0029589D01*
X0110424Y0029561D01*
X0110463Y0029535D01*
X0110503Y0029512D01*
X0110545Y0029493D01*
X0110589Y0029477D01*
X0110633Y0029464D01*
X0110679Y0029455D01*
X0110725Y0029450D01*
X0110771Y0029448D01*
X0112245Y0029448D01*
X0112245Y0029449D02*
X0112291Y0029451D01*
X0112337Y0029456D01*
X0112382Y0029465D01*
X0112427Y0029478D01*
X0112470Y0029494D01*
X0112512Y0029513D01*
X0112553Y0029536D01*
X0112591Y0029561D01*
X0112628Y0029590D01*
X0112661Y0029622D01*
X0112693Y0029655D01*
X0112722Y0029692D01*
X0112747Y0029730D01*
X0112770Y0029771D01*
X0112789Y0029813D01*
X0112805Y0029856D01*
X0112818Y0029901D01*
X0112827Y0029946D01*
X0112832Y0029992D01*
X0112834Y0030038D01*
X0112834Y0030627D01*
X0134587Y0084024D02*
X0134587Y0084761D01*
X0134589Y0084814D01*
X0134595Y0084866D01*
X0134604Y0084918D01*
X0134617Y0084969D01*
X0134633Y0085019D01*
X0134654Y0085067D01*
X0134677Y0085114D01*
X0134704Y0085159D01*
X0134734Y0085203D01*
X0134767Y0085244D01*
X0134803Y0085282D01*
X0134841Y0085318D01*
X0134882Y0085351D01*
X0134926Y0085381D01*
X0134971Y0085408D01*
X0135018Y0085431D01*
X0135066Y0085452D01*
X0135116Y0085468D01*
X0135167Y0085481D01*
X0135219Y0085490D01*
X0135271Y0085496D01*
X0135324Y0085498D01*
X0135377Y0085496D01*
X0135429Y0085490D01*
X0135481Y0085481D01*
X0135532Y0085468D01*
X0135582Y0085452D01*
X0135630Y0085431D01*
X0135677Y0085408D01*
X0135722Y0085381D01*
X0135766Y0085351D01*
X0135807Y0085318D01*
X0135845Y0085282D01*
X0135881Y0085244D01*
X0135914Y0085203D01*
X0135944Y0085159D01*
X0135971Y0085114D01*
X0135994Y0085067D01*
X0136015Y0085019D01*
X0136031Y0084969D01*
X0136044Y0084918D01*
X0136053Y0084866D01*
X0136059Y0084814D01*
X0136061Y0084761D01*
X0136061Y0084024D01*
X0136061Y0084908D02*
X0137240Y0085498D01*
X0137240Y0086662D02*
X0137240Y0088136D01*
X0137240Y0086662D02*
X0135766Y0087915D01*
X0134587Y0087473D02*
X0134589Y0087417D01*
X0134594Y0087361D01*
X0134604Y0087305D01*
X0134617Y0087250D01*
X0134633Y0087196D01*
X0134653Y0087143D01*
X0134677Y0087092D01*
X0134704Y0087043D01*
X0134734Y0086995D01*
X0134767Y0086949D01*
X0134803Y0086906D01*
X0134842Y0086865D01*
X0134883Y0086827D01*
X0134927Y0086792D01*
X0134974Y0086759D01*
X0135022Y0086730D01*
X0135072Y0086704D01*
X0135123Y0086682D01*
X0135177Y0086662D01*
X0135766Y0087914D02*
X0135728Y0087951D01*
X0135688Y0087984D01*
X0135645Y0088015D01*
X0135601Y0088043D01*
X0135554Y0088067D01*
X0135506Y0088087D01*
X0135457Y0088104D01*
X0135406Y0088118D01*
X0135354Y0088127D01*
X0135302Y0088133D01*
X0135250Y0088135D01*
X0135250Y0088136D02*
X0135200Y0088134D01*
X0135151Y0088129D01*
X0135102Y0088119D01*
X0135055Y0088107D01*
X0135008Y0088090D01*
X0134962Y0088070D01*
X0134919Y0088047D01*
X0134877Y0088021D01*
X0134837Y0087991D01*
X0134799Y0087959D01*
X0134764Y0087924D01*
X0134732Y0087886D01*
X0134702Y0087846D01*
X0134676Y0087805D01*
X0134653Y0087761D01*
X0134633Y0087715D01*
X0134616Y0087668D01*
X0134604Y0087621D01*
X0134594Y0087572D01*
X0134589Y0087523D01*
X0134587Y0087473D01*
X0134587Y0084024D02*
X0137240Y0084024D01*
X0122240Y0089024D02*
X0119587Y0089024D01*
X0119587Y0089761D01*
X0119589Y0089814D01*
X0119595Y0089866D01*
X0119604Y0089918D01*
X0119617Y0089969D01*
X0119633Y0090019D01*
X0119654Y0090067D01*
X0119677Y0090114D01*
X0119704Y0090159D01*
X0119734Y0090203D01*
X0119767Y0090244D01*
X0119803Y0090282D01*
X0119841Y0090318D01*
X0119882Y0090351D01*
X0119926Y0090381D01*
X0119971Y0090408D01*
X0120018Y0090431D01*
X0120066Y0090452D01*
X0120116Y0090468D01*
X0120167Y0090481D01*
X0120219Y0090490D01*
X0120271Y0090496D01*
X0120324Y0090498D01*
X0120377Y0090496D01*
X0120429Y0090490D01*
X0120481Y0090481D01*
X0120532Y0090468D01*
X0120582Y0090452D01*
X0120630Y0090431D01*
X0120677Y0090408D01*
X0120722Y0090381D01*
X0120766Y0090351D01*
X0120807Y0090318D01*
X0120845Y0090282D01*
X0120881Y0090244D01*
X0120914Y0090203D01*
X0120944Y0090159D01*
X0120971Y0090114D01*
X0120994Y0090067D01*
X0121015Y0090019D01*
X0121031Y0089969D01*
X0121044Y0089918D01*
X0121053Y0089866D01*
X0121059Y0089814D01*
X0121061Y0089761D01*
X0121061Y0089024D01*
X0121061Y0089908D02*
X0122240Y0090498D01*
X0122240Y0091662D02*
X0122240Y0093136D01*
X0122240Y0092399D02*
X0119587Y0092399D01*
X0120177Y0091662D01*
X0169024Y0119760D02*
X0169024Y0122413D01*
X0169761Y0122413D01*
X0169814Y0122411D01*
X0169866Y0122405D01*
X0169918Y0122396D01*
X0169969Y0122383D01*
X0170019Y0122367D01*
X0170067Y0122346D01*
X0170114Y0122323D01*
X0170159Y0122296D01*
X0170203Y0122266D01*
X0170244Y0122233D01*
X0170282Y0122197D01*
X0170318Y0122159D01*
X0170351Y0122118D01*
X0170381Y0122074D01*
X0170408Y0122029D01*
X0170431Y0121982D01*
X0170452Y0121934D01*
X0170468Y0121884D01*
X0170481Y0121833D01*
X0170490Y0121781D01*
X0170496Y0121729D01*
X0170498Y0121676D01*
X0170496Y0121623D01*
X0170490Y0121571D01*
X0170481Y0121519D01*
X0170468Y0121468D01*
X0170452Y0121418D01*
X0170431Y0121370D01*
X0170408Y0121323D01*
X0170381Y0121278D01*
X0170351Y0121234D01*
X0170318Y0121193D01*
X0170282Y0121155D01*
X0170244Y0121119D01*
X0170203Y0121086D01*
X0170159Y0121056D01*
X0170114Y0121029D01*
X0170067Y0121006D01*
X0170019Y0120985D01*
X0169969Y0120969D01*
X0169918Y0120956D01*
X0169866Y0120947D01*
X0169814Y0120941D01*
X0169761Y0120939D01*
X0169024Y0120939D01*
X0169908Y0120939D02*
X0170498Y0119760D01*
X0171662Y0120350D02*
X0173136Y0120350D01*
X0172694Y0120939D02*
X0172694Y0119760D01*
X0171662Y0120350D02*
X0172252Y0122413D01*
X0172223Y0135087D02*
X0172223Y0137740D01*
X0171486Y0137150D01*
X0170214Y0137003D02*
X0170214Y0135824D01*
X0170212Y0135771D01*
X0170206Y0135719D01*
X0170197Y0135667D01*
X0170184Y0135616D01*
X0170168Y0135566D01*
X0170147Y0135518D01*
X0170124Y0135471D01*
X0170097Y0135426D01*
X0170067Y0135382D01*
X0170034Y0135341D01*
X0169998Y0135303D01*
X0169960Y0135267D01*
X0169919Y0135234D01*
X0169875Y0135204D01*
X0169830Y0135177D01*
X0169783Y0135154D01*
X0169735Y0135133D01*
X0169685Y0135117D01*
X0169634Y0135104D01*
X0169582Y0135095D01*
X0169530Y0135089D01*
X0169477Y0135087D01*
X0168740Y0135087D01*
X0168740Y0137740D01*
X0169477Y0137740D01*
X0169530Y0137738D01*
X0169582Y0137732D01*
X0169634Y0137723D01*
X0169685Y0137710D01*
X0169735Y0137694D01*
X0169783Y0137673D01*
X0169830Y0137650D01*
X0169875Y0137623D01*
X0169919Y0137593D01*
X0169960Y0137560D01*
X0169998Y0137524D01*
X0170034Y0137486D01*
X0170067Y0137445D01*
X0170097Y0137401D01*
X0170124Y0137356D01*
X0170147Y0137309D01*
X0170168Y0137261D01*
X0170184Y0137211D01*
X0170197Y0137160D01*
X0170206Y0137108D01*
X0170212Y0137056D01*
X0170214Y0137003D01*
X0171486Y0135087D02*
X0172960Y0135087D01*
X0218945Y0102893D02*
X0218945Y0101419D01*
X0218945Y0102156D02*
X0221598Y0102156D01*
X0220861Y0100324D02*
X0218945Y0100324D01*
X0218945Y0098851D02*
X0220861Y0098851D01*
X0220861Y0098850D02*
X0220914Y0098852D01*
X0220966Y0098858D01*
X0221018Y0098867D01*
X0221069Y0098880D01*
X0221119Y0098896D01*
X0221167Y0098917D01*
X0221214Y0098940D01*
X0221259Y0098967D01*
X0221303Y0098997D01*
X0221344Y0099030D01*
X0221382Y0099066D01*
X0221418Y0099104D01*
X0221451Y0099145D01*
X0221481Y0099189D01*
X0221508Y0099234D01*
X0221531Y0099281D01*
X0221552Y0099329D01*
X0221568Y0099379D01*
X0221581Y0099430D01*
X0221590Y0099482D01*
X0221596Y0099534D01*
X0221598Y0099587D01*
X0221596Y0099640D01*
X0221590Y0099692D01*
X0221581Y0099744D01*
X0221568Y0099795D01*
X0221552Y0099845D01*
X0221531Y0099893D01*
X0221508Y0099940D01*
X0221481Y0099985D01*
X0221451Y0100029D01*
X0221418Y0100070D01*
X0221382Y0100108D01*
X0221344Y0100144D01*
X0221303Y0100177D01*
X0221259Y0100207D01*
X0221214Y0100234D01*
X0221167Y0100257D01*
X0221119Y0100278D01*
X0221069Y0100294D01*
X0221018Y0100307D01*
X0220966Y0100316D01*
X0220914Y0100322D01*
X0220861Y0100324D01*
X0220861Y0097578D02*
X0219682Y0097578D01*
X0219629Y0097576D01*
X0219577Y0097570D01*
X0219525Y0097561D01*
X0219474Y0097548D01*
X0219424Y0097532D01*
X0219376Y0097511D01*
X0219329Y0097488D01*
X0219284Y0097461D01*
X0219240Y0097431D01*
X0219199Y0097398D01*
X0219161Y0097362D01*
X0219125Y0097324D01*
X0219092Y0097283D01*
X0219062Y0097239D01*
X0219035Y0097194D01*
X0219012Y0097147D01*
X0218991Y0097099D01*
X0218975Y0097049D01*
X0218962Y0096998D01*
X0218953Y0096946D01*
X0218947Y0096894D01*
X0218945Y0096841D01*
X0218947Y0096788D01*
X0218953Y0096736D01*
X0218962Y0096684D01*
X0218975Y0096633D01*
X0218991Y0096583D01*
X0219012Y0096535D01*
X0219035Y0096488D01*
X0219062Y0096443D01*
X0219092Y0096399D01*
X0219125Y0096358D01*
X0219161Y0096320D01*
X0219199Y0096284D01*
X0219240Y0096251D01*
X0219284Y0096221D01*
X0219329Y0096194D01*
X0219376Y0096171D01*
X0219424Y0096150D01*
X0219474Y0096134D01*
X0219525Y0096121D01*
X0219577Y0096112D01*
X0219629Y0096106D01*
X0219682Y0096104D01*
X0220861Y0096104D01*
X0220914Y0096106D01*
X0220966Y0096112D01*
X0221018Y0096121D01*
X0221069Y0096134D01*
X0221119Y0096150D01*
X0221167Y0096171D01*
X0221214Y0096194D01*
X0221259Y0096221D01*
X0221303Y0096251D01*
X0221344Y0096284D01*
X0221382Y0096320D01*
X0221418Y0096358D01*
X0221451Y0096399D01*
X0221481Y0096443D01*
X0221508Y0096488D01*
X0221531Y0096535D01*
X0221552Y0096583D01*
X0221568Y0096633D01*
X0221581Y0096684D01*
X0221590Y0096736D01*
X0221596Y0096788D01*
X0221598Y0096841D01*
X0221596Y0096894D01*
X0221590Y0096946D01*
X0221581Y0096998D01*
X0221568Y0097049D01*
X0221552Y0097099D01*
X0221531Y0097147D01*
X0221508Y0097194D01*
X0221481Y0097239D01*
X0221451Y0097283D01*
X0221418Y0097324D01*
X0221382Y0097362D01*
X0221344Y0097398D01*
X0221303Y0097431D01*
X0221259Y0097461D01*
X0221214Y0097488D01*
X0221167Y0097511D01*
X0221119Y0097532D01*
X0221069Y0097548D01*
X0221018Y0097561D01*
X0220966Y0097570D01*
X0220914Y0097576D01*
X0220861Y0097578D01*
X0221598Y0095060D02*
X0221598Y0094471D01*
X0221596Y0094425D01*
X0221591Y0094379D01*
X0221582Y0094334D01*
X0221569Y0094289D01*
X0221553Y0094246D01*
X0221534Y0094204D01*
X0221511Y0094163D01*
X0221486Y0094125D01*
X0221457Y0094088D01*
X0221425Y0094055D01*
X0221392Y0094023D01*
X0221355Y0093994D01*
X0221317Y0093969D01*
X0221276Y0093946D01*
X0221234Y0093927D01*
X0221191Y0093911D01*
X0221146Y0093898D01*
X0221101Y0093889D01*
X0221055Y0093884D01*
X0221009Y0093882D01*
X0221009Y0093881D02*
X0219535Y0093881D01*
X0219489Y0093883D01*
X0219443Y0093888D01*
X0219397Y0093897D01*
X0219353Y0093910D01*
X0219309Y0093926D01*
X0219267Y0093945D01*
X0219227Y0093968D01*
X0219188Y0093994D01*
X0219152Y0094022D01*
X0219118Y0094054D01*
X0219086Y0094088D01*
X0219058Y0094124D01*
X0219032Y0094163D01*
X0219009Y0094203D01*
X0218990Y0094245D01*
X0218974Y0094289D01*
X0218961Y0094333D01*
X0218952Y0094379D01*
X0218947Y0094425D01*
X0218945Y0094471D01*
X0218945Y0095060D01*
X0218945Y0092846D02*
X0218945Y0092256D01*
X0218947Y0092210D01*
X0218952Y0092164D01*
X0218961Y0092118D01*
X0218974Y0092074D01*
X0218990Y0092030D01*
X0219009Y0091988D01*
X0219032Y0091948D01*
X0219058Y0091909D01*
X0219086Y0091873D01*
X0219118Y0091839D01*
X0219152Y0091807D01*
X0219188Y0091779D01*
X0219227Y0091753D01*
X0219267Y0091730D01*
X0219309Y0091711D01*
X0219353Y0091695D01*
X0219397Y0091682D01*
X0219443Y0091673D01*
X0219489Y0091668D01*
X0219535Y0091666D01*
X0219535Y0091667D02*
X0221009Y0091667D01*
X0221055Y0091669D01*
X0221101Y0091674D01*
X0221146Y0091683D01*
X0221191Y0091696D01*
X0221234Y0091712D01*
X0221276Y0091731D01*
X0221317Y0091754D01*
X0221355Y0091779D01*
X0221392Y0091808D01*
X0221425Y0091840D01*
X0221457Y0091873D01*
X0221486Y0091910D01*
X0221511Y0091948D01*
X0221534Y0091989D01*
X0221553Y0092031D01*
X0221569Y0092074D01*
X0221582Y0092119D01*
X0221591Y0092164D01*
X0221596Y0092210D01*
X0221598Y0092256D01*
X0221598Y0092846D01*
X0221598Y0089755D02*
X0218945Y0090639D01*
X0218945Y0088870D02*
X0221598Y0089755D01*
X0219930Y0082350D02*
X0219930Y0080876D01*
X0219930Y0081613D02*
X0222582Y0081613D01*
X0221845Y0079781D02*
X0219930Y0079781D01*
X0219930Y0078307D02*
X0221845Y0078307D01*
X0221898Y0078309D01*
X0221950Y0078315D01*
X0222002Y0078324D01*
X0222053Y0078337D01*
X0222103Y0078353D01*
X0222151Y0078374D01*
X0222198Y0078397D01*
X0222243Y0078424D01*
X0222287Y0078454D01*
X0222328Y0078487D01*
X0222366Y0078523D01*
X0222402Y0078561D01*
X0222435Y0078602D01*
X0222465Y0078646D01*
X0222492Y0078691D01*
X0222515Y0078738D01*
X0222536Y0078786D01*
X0222552Y0078836D01*
X0222565Y0078887D01*
X0222574Y0078939D01*
X0222580Y0078991D01*
X0222582Y0079044D01*
X0222580Y0079097D01*
X0222574Y0079149D01*
X0222565Y0079201D01*
X0222552Y0079252D01*
X0222536Y0079302D01*
X0222515Y0079350D01*
X0222492Y0079397D01*
X0222465Y0079442D01*
X0222435Y0079486D01*
X0222402Y0079527D01*
X0222366Y0079565D01*
X0222328Y0079601D01*
X0222287Y0079634D01*
X0222243Y0079664D01*
X0222198Y0079691D01*
X0222151Y0079714D01*
X0222103Y0079735D01*
X0222053Y0079751D01*
X0222002Y0079764D01*
X0221950Y0079773D01*
X0221898Y0079779D01*
X0221845Y0079781D01*
X0221845Y0077035D02*
X0220666Y0077035D01*
X0220613Y0077033D01*
X0220561Y0077027D01*
X0220509Y0077018D01*
X0220458Y0077005D01*
X0220408Y0076989D01*
X0220360Y0076968D01*
X0220313Y0076945D01*
X0220268Y0076918D01*
X0220224Y0076888D01*
X0220183Y0076855D01*
X0220145Y0076819D01*
X0220109Y0076781D01*
X0220076Y0076740D01*
X0220046Y0076696D01*
X0220019Y0076651D01*
X0219996Y0076604D01*
X0219975Y0076556D01*
X0219959Y0076506D01*
X0219946Y0076455D01*
X0219937Y0076403D01*
X0219931Y0076351D01*
X0219929Y0076298D01*
X0219931Y0076245D01*
X0219937Y0076193D01*
X0219946Y0076141D01*
X0219959Y0076090D01*
X0219975Y0076040D01*
X0219996Y0075992D01*
X0220019Y0075945D01*
X0220046Y0075900D01*
X0220076Y0075856D01*
X0220109Y0075815D01*
X0220145Y0075777D01*
X0220183Y0075741D01*
X0220224Y0075708D01*
X0220268Y0075678D01*
X0220313Y0075651D01*
X0220360Y0075628D01*
X0220408Y0075607D01*
X0220458Y0075591D01*
X0220509Y0075578D01*
X0220561Y0075569D01*
X0220613Y0075563D01*
X0220666Y0075561D01*
X0221845Y0075561D01*
X0221898Y0075563D01*
X0221950Y0075569D01*
X0222002Y0075578D01*
X0222053Y0075591D01*
X0222103Y0075607D01*
X0222151Y0075628D01*
X0222198Y0075651D01*
X0222243Y0075678D01*
X0222287Y0075708D01*
X0222328Y0075741D01*
X0222366Y0075777D01*
X0222402Y0075815D01*
X0222435Y0075856D01*
X0222465Y0075900D01*
X0222492Y0075945D01*
X0222515Y0075992D01*
X0222536Y0076040D01*
X0222552Y0076090D01*
X0222565Y0076141D01*
X0222574Y0076193D01*
X0222580Y0076245D01*
X0222582Y0076298D01*
X0222580Y0076351D01*
X0222574Y0076403D01*
X0222565Y0076455D01*
X0222552Y0076506D01*
X0222536Y0076556D01*
X0222515Y0076604D01*
X0222492Y0076651D01*
X0222465Y0076696D01*
X0222435Y0076740D01*
X0222402Y0076781D01*
X0222366Y0076819D01*
X0222328Y0076855D01*
X0222287Y0076888D01*
X0222243Y0076918D01*
X0222198Y0076945D01*
X0222151Y0076968D01*
X0222103Y0076989D01*
X0222053Y0077005D01*
X0222002Y0077018D01*
X0221950Y0077027D01*
X0221898Y0077033D01*
X0221845Y0077035D01*
X0221845Y0074289D02*
X0220666Y0074289D01*
X0220613Y0074287D01*
X0220561Y0074281D01*
X0220509Y0074272D01*
X0220458Y0074259D01*
X0220408Y0074243D01*
X0220360Y0074222D01*
X0220313Y0074199D01*
X0220268Y0074172D01*
X0220224Y0074142D01*
X0220183Y0074109D01*
X0220145Y0074073D01*
X0220109Y0074035D01*
X0220076Y0073994D01*
X0220046Y0073950D01*
X0220019Y0073905D01*
X0219996Y0073858D01*
X0219975Y0073810D01*
X0219959Y0073760D01*
X0219946Y0073709D01*
X0219937Y0073657D01*
X0219931Y0073605D01*
X0219929Y0073552D01*
X0219930Y0073552D02*
X0219930Y0072815D01*
X0222582Y0072815D01*
X0222582Y0073552D01*
X0222580Y0073605D01*
X0222574Y0073657D01*
X0222565Y0073709D01*
X0222552Y0073760D01*
X0222536Y0073810D01*
X0222515Y0073858D01*
X0222492Y0073905D01*
X0222465Y0073950D01*
X0222435Y0073994D01*
X0222402Y0074035D01*
X0222366Y0074073D01*
X0222328Y0074109D01*
X0222287Y0074142D01*
X0222243Y0074172D01*
X0222198Y0074199D01*
X0222151Y0074222D01*
X0222103Y0074243D01*
X0222053Y0074259D01*
X0222002Y0074272D01*
X0221950Y0074281D01*
X0221898Y0074287D01*
X0221845Y0074289D01*
X0222582Y0071454D02*
X0219930Y0071454D01*
X0219930Y0069981D02*
X0222582Y0071454D01*
X0222582Y0069981D02*
X0219930Y0069981D01*
X0219930Y0068620D02*
X0219930Y0067735D01*
X0219929Y0067735D02*
X0219931Y0067689D01*
X0219936Y0067643D01*
X0219945Y0067597D01*
X0219958Y0067553D01*
X0219974Y0067509D01*
X0219993Y0067467D01*
X0220016Y0067427D01*
X0220042Y0067388D01*
X0220070Y0067352D01*
X0220102Y0067318D01*
X0220136Y0067286D01*
X0220172Y0067258D01*
X0220211Y0067232D01*
X0220251Y0067209D01*
X0220293Y0067190D01*
X0220337Y0067174D01*
X0220381Y0067161D01*
X0220427Y0067152D01*
X0220473Y0067147D01*
X0220519Y0067145D01*
X0220519Y0067146D02*
X0221993Y0067146D01*
X0222039Y0067148D01*
X0222085Y0067153D01*
X0222130Y0067162D01*
X0222175Y0067175D01*
X0222218Y0067191D01*
X0222260Y0067210D01*
X0222301Y0067233D01*
X0222339Y0067258D01*
X0222376Y0067287D01*
X0222409Y0067319D01*
X0222441Y0067352D01*
X0222470Y0067389D01*
X0222495Y0067427D01*
X0222518Y0067468D01*
X0222537Y0067510D01*
X0222553Y0067553D01*
X0222566Y0067598D01*
X0222575Y0067643D01*
X0222580Y0067689D01*
X0222582Y0067735D01*
X0222582Y0068620D01*
X0221109Y0068620D01*
X0221109Y0068178D01*
D14*
X0177500Y0136000D03*
D15*
X0181250Y0136000D03*
X0160750Y0136000D03*
D16*
X0153000Y0086000D02*
X0153000Y0053500D01*
X0189000Y0053500D01*
X0189000Y0086000D01*
X0153000Y0086000D01*
D17*
X0153700Y0087200D02*
X0154900Y0090800D01*
X0156100Y0087200D01*
X0155800Y0088100D02*
X0154000Y0088100D01*
X0157500Y0087200D02*
X0159500Y0087200D01*
X0158500Y0087200D02*
X0158500Y0090800D01*
X0157500Y0090000D01*
X0161100Y0090400D02*
X0161100Y0090800D01*
X0163100Y0090800D01*
X0162100Y0087200D01*
X0164505Y0087200D02*
X0164505Y0087400D01*
X0164705Y0087400D01*
X0164705Y0087200D01*
X0164405Y0086400D01*
X0164505Y0087200D02*
X0164705Y0087200D01*
X0166140Y0087200D02*
X0167340Y0087200D01*
X0167395Y0087202D01*
X0167449Y0087207D01*
X0167503Y0087217D01*
X0167556Y0087230D01*
X0167608Y0087246D01*
X0167659Y0087266D01*
X0167708Y0087290D01*
X0167756Y0087316D01*
X0167801Y0087346D01*
X0167845Y0087379D01*
X0167886Y0087415D01*
X0167925Y0087454D01*
X0167961Y0087495D01*
X0167994Y0087539D01*
X0168024Y0087584D01*
X0168050Y0087632D01*
X0168074Y0087681D01*
X0168094Y0087732D01*
X0168110Y0087784D01*
X0168123Y0087837D01*
X0168133Y0087891D01*
X0168138Y0087945D01*
X0168140Y0088000D01*
X0168140Y0088400D01*
X0168138Y0088455D01*
X0168133Y0088509D01*
X0168123Y0088563D01*
X0168110Y0088616D01*
X0168094Y0088668D01*
X0168074Y0088719D01*
X0168050Y0088768D01*
X0168024Y0088816D01*
X0167994Y0088861D01*
X0167961Y0088905D01*
X0167925Y0088946D01*
X0167886Y0088985D01*
X0167845Y0089021D01*
X0167801Y0089054D01*
X0167756Y0089084D01*
X0167708Y0089110D01*
X0167659Y0089134D01*
X0167608Y0089154D01*
X0167556Y0089170D01*
X0167503Y0089183D01*
X0167449Y0089193D01*
X0167395Y0089198D01*
X0167340Y0089200D01*
X0166140Y0089200D01*
X0166140Y0090800D01*
X0168140Y0090800D01*
X0169900Y0089600D02*
X0171700Y0089600D01*
X0171747Y0089598D01*
X0171794Y0089593D01*
X0171840Y0089583D01*
X0171885Y0089571D01*
X0171930Y0089554D01*
X0171972Y0089535D01*
X0172013Y0089512D01*
X0172053Y0089485D01*
X0172090Y0089456D01*
X0172124Y0089424D01*
X0172156Y0089390D01*
X0172185Y0089353D01*
X0172212Y0089313D01*
X0172235Y0089272D01*
X0172254Y0089230D01*
X0172271Y0089185D01*
X0172283Y0089140D01*
X0172293Y0089094D01*
X0172298Y0089047D01*
X0172300Y0089000D01*
X0172300Y0087200D01*
X0171100Y0087200D02*
X0171100Y0089600D01*
X0169900Y0089600D02*
X0169900Y0087200D01*
X0174220Y0087200D02*
X0174220Y0089600D01*
X0176020Y0089600D01*
X0176067Y0089598D01*
X0176114Y0089593D01*
X0176160Y0089583D01*
X0176205Y0089571D01*
X0176250Y0089554D01*
X0176292Y0089535D01*
X0176333Y0089512D01*
X0176373Y0089485D01*
X0176410Y0089456D01*
X0176444Y0089424D01*
X0176476Y0089390D01*
X0176505Y0089353D01*
X0176532Y0089313D01*
X0176555Y0089272D01*
X0176574Y0089230D01*
X0176591Y0089185D01*
X0176603Y0089140D01*
X0176613Y0089094D01*
X0176618Y0089047D01*
X0176620Y0089000D01*
X0176620Y0087200D01*
X0175420Y0087200D02*
X0175420Y0089600D01*
D18*
X0171000Y0038750D03*
X0181000Y0038750D03*
X0161000Y0038750D03*
D19*
X0161000Y0045500D03*
X0171000Y0045500D03*
X0181000Y0045500D03*
D20*
X0160550Y0076850D02*
X0159150Y0078250D01*
X0159850Y0078600D02*
X0159850Y0081400D01*
X0159848Y0081482D01*
X0159842Y0081564D01*
X0159833Y0081645D01*
X0159819Y0081726D01*
X0159802Y0081807D01*
X0159781Y0081886D01*
X0159757Y0081964D01*
X0159728Y0082041D01*
X0159696Y0082117D01*
X0159661Y0082191D01*
X0159622Y0082263D01*
X0159580Y0082334D01*
X0159535Y0082402D01*
X0159486Y0082468D01*
X0159435Y0082532D01*
X0159380Y0082593D01*
X0159323Y0082652D01*
X0159263Y0082708D01*
X0159200Y0082761D01*
X0159135Y0082811D01*
X0159068Y0082858D01*
X0158999Y0082902D01*
X0158927Y0082942D01*
X0158854Y0082979D01*
X0158779Y0083013D01*
X0158703Y0083043D01*
X0158625Y0083069D01*
X0158546Y0083092D01*
X0158467Y0083111D01*
X0158386Y0083126D01*
X0158305Y0083138D01*
X0158223Y0083146D01*
X0158141Y0083150D01*
X0158059Y0083150D01*
X0157977Y0083146D01*
X0157895Y0083138D01*
X0157814Y0083126D01*
X0157733Y0083111D01*
X0157654Y0083092D01*
X0157575Y0083069D01*
X0157497Y0083043D01*
X0157421Y0083013D01*
X0157346Y0082979D01*
X0157273Y0082942D01*
X0157201Y0082902D01*
X0157132Y0082858D01*
X0157065Y0082811D01*
X0157000Y0082761D01*
X0156937Y0082708D01*
X0156877Y0082652D01*
X0156820Y0082593D01*
X0156765Y0082532D01*
X0156714Y0082468D01*
X0156665Y0082402D01*
X0156620Y0082334D01*
X0156578Y0082263D01*
X0156539Y0082191D01*
X0156504Y0082117D01*
X0156472Y0082041D01*
X0156443Y0081964D01*
X0156419Y0081886D01*
X0156398Y0081807D01*
X0156381Y0081726D01*
X0156367Y0081645D01*
X0156358Y0081564D01*
X0156352Y0081482D01*
X0156350Y0081400D01*
X0156350Y0078600D01*
X0156352Y0078518D01*
X0156358Y0078436D01*
X0156367Y0078355D01*
X0156381Y0078274D01*
X0156398Y0078193D01*
X0156419Y0078114D01*
X0156443Y0078036D01*
X0156472Y0077959D01*
X0156504Y0077883D01*
X0156539Y0077809D01*
X0156578Y0077737D01*
X0156620Y0077666D01*
X0156665Y0077598D01*
X0156714Y0077532D01*
X0156765Y0077468D01*
X0156820Y0077407D01*
X0156877Y0077348D01*
X0156937Y0077292D01*
X0157000Y0077239D01*
X0157065Y0077189D01*
X0157132Y0077142D01*
X0157201Y0077098D01*
X0157273Y0077058D01*
X0157346Y0077021D01*
X0157421Y0076987D01*
X0157497Y0076957D01*
X0157575Y0076931D01*
X0157654Y0076908D01*
X0157733Y0076889D01*
X0157814Y0076874D01*
X0157895Y0076862D01*
X0157977Y0076854D01*
X0158059Y0076850D01*
X0158141Y0076850D01*
X0158223Y0076854D01*
X0158305Y0076862D01*
X0158386Y0076874D01*
X0158467Y0076889D01*
X0158546Y0076908D01*
X0158625Y0076931D01*
X0158703Y0076957D01*
X0158779Y0076987D01*
X0158854Y0077021D01*
X0158927Y0077058D01*
X0158999Y0077098D01*
X0159068Y0077142D01*
X0159135Y0077189D01*
X0159200Y0077239D01*
X0159263Y0077292D01*
X0159323Y0077348D01*
X0159380Y0077407D01*
X0159435Y0077468D01*
X0159486Y0077532D01*
X0159535Y0077598D01*
X0159580Y0077666D01*
X0159622Y0077737D01*
X0159661Y0077809D01*
X0159696Y0077883D01*
X0159728Y0077959D01*
X0159757Y0078036D01*
X0159781Y0078114D01*
X0159802Y0078193D01*
X0159819Y0078274D01*
X0159833Y0078355D01*
X0159842Y0078436D01*
X0159848Y0078518D01*
X0159850Y0078600D01*
M02*
